<?xml version="1.0" encoding="utf-8"?>
<!-- Generator: Adobe Illustrator 26.0.2, SVG Export Plug-In . SVG Version: 6.00 Build 0)  -->
<svg version="1.1" id="Ebene_1" xmlns="http://www.w3.org/2000/svg" xmlns:xlink="http://www.w3.org/1999/xlink" x="0px" y="0px"
	 viewBox="0 0 1920 1080" style="enable-background:new 0 0 1920 1080;" xml:space="preserve">
<style type="text/css">
	.st0{enable-background:new    ;}
	.st1{fill:none;stroke:#CECCCC;stroke-miterlimit:10;}
	.st2{fill:none;stroke:#CECCCC;stroke-miterlimit:10;stroke-dasharray:2.0038,3.0057;}
	.st3{fill:none;stroke:#CECCCC;stroke-miterlimit:10;stroke-dasharray:1.9923,2.9884;}
	.st4{fill:none;stroke:#CECCCC;stroke-miterlimit:10;stroke-dasharray:1.9655,2.9482;}
	.st5{fill:none;stroke:#CECCCC;stroke-miterlimit:10;stroke-dasharray:1.9767,2.9651;}
	.st6{fill:none;stroke:#CECCCC;stroke-miterlimit:10;stroke-dasharray:2.0469,3.0704;}
	.st7{fill:none;stroke:#CECCCC;stroke-miterlimit:10;stroke-dasharray:1.751,2.6265;}
	.st8{fill:none;stroke:#CECCCC;stroke-miterlimit:10;stroke-dasharray:1.9941,2.9911;}
	.st9{fill:none;stroke:#CECCCC;stroke-miterlimit:10;stroke-dasharray:2.0004,3.0006;}
	.st10{fill:none;stroke:#CECCCC;stroke-miterlimit:10;stroke-dasharray:1.9808,2.9712;}
	.st11{fill:none;stroke:#CECCCC;stroke-miterlimit:10;stroke-dasharray:1.7012,2.5519;}
	.st12{fill:none;stroke:#CECCCC;stroke-miterlimit:10;stroke-dasharray:1.9876,2.9814;}
	.st13{fill:none;stroke:#CECCCC;stroke-miterlimit:10;stroke-dasharray:2.0057,3.0085;}
	.st14{fill:none;stroke:#CECCCC;stroke-miterlimit:10;stroke-dasharray:2.0108,3.0162;}
	.st15{fill:none;stroke:#CECCCC;stroke-miterlimit:10;stroke-dasharray:2.0236,3.0354;}
	.st16{fill:none;stroke:#CECCCC;stroke-miterlimit:10;stroke-dasharray:1.9815,2.9722;}
	.st17{fill:none;stroke:#CECCCC;stroke-miterlimit:10;stroke-dasharray:1.9854,2.9781;}
	.st18{fill:none;stroke:#CECCCC;stroke-miterlimit:10;stroke-dasharray:1.9994,2.9992;}
	.st19{fill:none;stroke:#CECCCC;stroke-miterlimit:10;stroke-dasharray:1.8962,2.8443;}
	.st20{fill:none;stroke:#CECCCC;stroke-miterlimit:10;stroke-dasharray:1.9938,2.9907;}
	.st21{fill:none;stroke:#CECCCC;stroke-miterlimit:10;stroke-dasharray:2.0074,3.0111;}
	.st22{fill:none;stroke:#CECCCC;stroke-miterlimit:10;stroke-dasharray:1.9943,2.9915;}
	.st23{fill:none;stroke:#CECCCC;stroke-miterlimit:10;stroke-dasharray:2.0147,3.0221;}
	.st24{fill:none;stroke:#CECCCC;stroke-miterlimit:10;stroke-dasharray:1.979,2.9685;}
	.st25{fill:none;stroke:#CECCCC;stroke-miterlimit:10;stroke-dasharray:2.0329,3.0494;}
	.st26{fill:none;stroke:#CECCCC;stroke-miterlimit:10;stroke-dasharray:1.8634,2.7952;}
	.st27{fill:none;stroke:#CECCCC;stroke-miterlimit:10;stroke-dasharray:1.8523,2.7785;}
	.st28{fill:none;stroke:#CECCCC;stroke-miterlimit:10;stroke-dasharray:1.882,2.823;}
	.st29{fill:none;stroke:#CECCCC;stroke-miterlimit:10;stroke-dasharray:1.9632,2.9449;}
	.st30{fill:none;stroke:#CECCCC;stroke-miterlimit:10;stroke-dasharray:1.9789,2.9683;}
	.st31{fill:none;stroke:#CECCCC;stroke-miterlimit:10;stroke-dasharray:2.0279,3.0418;}
	.st32{fill:none;stroke:#CECCCC;stroke-miterlimit:10;stroke-dasharray:1.9942,2.9912;}
	.st33{fill:none;stroke:#CECCCC;stroke-miterlimit:10;stroke-dasharray:1.9745,2.9617;}
	.st34{fill:#AFAFAF;}
	.st35{font-family:'Oswald-Light';}
	.st36{font-size:11px;}
	.st37{fill:#CCCACA;}
	.st38{font-size:15px;}
	.st39{letter-spacing:3;}
	.st40{letter-spacing:2;}
	.st41{fill:none;stroke:#1D1D1B;stroke-miterlimit:10;}
	.st42{fill:none;stroke:#CECCCC;stroke-miterlimit:10;stroke-dasharray:1.9625,2.9438;}
</style>
<g id="Ebene_1_00000099649791662354447910000015817454604537993660_">
	<g id="Ebene_2_00000158027553411488953040000014001027124054791834_">
	</g>
</g>
<g id="Ebene_2_00000089542399067189599690000017894654208666745248_">
	<g id="Ebene_3">
		<g>
			<g class="st0">
				<g>
					<g>
						<g>
							<g>
								<line class="st1" x1="984.6" y1="262.3" x2="985.6" y2="262.4"/>
								<path class="st2" d="M988.6,262.8l2.5,0.3c1.3,0.5,2.5,1.1,3.5,1.8c1,0.6,1.7,1.4,2.1,2.2c0.3,0.8,0.2,1.8,0,2.9
									c-0.2,1.3-0.4,2.6,0.4,3.4c0.8,0.9,2.5,1.1,4,1.4c1,0.2,1.9,0.3,2.1,0.5c0.8,1.7,1.3,2.8,3.5,3.9c1.2,0.6,2.7,1.5,4.5,2.6
									c2.4,1.4,5.3,3.2,8.6,4.8c3.7,1.9,6.2,3.8,8.2,5.4c1,0.8,2,1.5,2.9,2.1c0.6,0.4,1.2,0.5,1.8,0.6c1.3,0,2.7-0.6,4.1-1.2
									c1-0.5,1.9-0.9,2.5-0.9c1.1,0.4,1.4,1.1,1.8,1.7c0.5,0.9,1,1.8,2.5,1.9c1.2,0,1.8-0.1,2.4-0.2c3.4,1.1,3.7,1.8,4.2,2.6
									c0.3,0.6,0.7,1.4,1.4,2.2c0.8,1,1.7,2.2,2.8,3.3c1.2,1.1,2.6,2,4.2,2.4c2.6,0.2,3.6-0.2,4.8-0.7c1.1-0.5,2.2-0.9,3.5-0.9
									c2.4,0.2,4.1,1.2,5.7,2.1c1,0.6,1.9,1.1,2.8,1.4c0.7,0.2,1.3,0.3,1.9,0.3c2.1,0,2.9,0.1,3.7,0.3"/>
								<path class="st1" d="M1082.2,309.4c0.3,0.1,0.6,0.2,0.9,0.3c-0.2,0.2-0.5,0.4-0.8,0.6"/>
								<path class="st3" d="M1079.9,311.9c-0.4,0.1-0.8,0.3-1.3,0.4c-2.2,0.7-4.6,1.5-4.7,2.9c0,1.8,0,4-0.4,5.7
									c-0.2,0.7-1.2,1-2.5,1.4c-1.4,0.4-2.9,0.9-4.2,2c-0.6,0.5-1.1,1-1.6,1.4c-1.4,1.3-2.3,2.1-5.5,2.9c-1.3,0.3-2.3,0.6-3.3,0.9
									c-1.7,0.5-3.1,1-4.2,0.9c-3.7-1.5-6.4-2.8-9.5-2.9c-2.2-0.1-4.4-0.8-6.3-1.4c-0.7-0.2-1.3-0.4-2-0.6
									c-1.1-0.3-2.4-0.5-3.8-0.5c-2.5,0-3.9,0.3-5,0.9c-1,0.5-1.4,1.4-1.9,2.4c-0.7,1.5-1.6,3.3-4.3,4c-3.5,1-5.1,1.1-7.6,1.1
									c-0.8,0-1.8,0-2.8,0s-1.8,0-2.5,0c-3.2,0-5.2,0-6.3,2c-0.6,1.1-0.8,2.2-0.7,3.3c0.1,1,0.4,2.1,0.8,3.2
									c1,2.7,2.2,5.6,3.3,7.3c0.6,0.8,1.3,1.3,2.1,1.9c0.9,0.6,2,1.4,2.7,2.8c0.5,1.1,0.9,2.1,1.2,3c0.5,1.5,1,2.8,1.8,3.8
									c0.5,0.5,0.8,1.1,1.2,1.6c0.7,1,1.3,2,2.5,2.6c0.9,0.5,1.9,0.6,2.9,0.6c0.8,0.1,1.5,0.1,1.8,0.4c0.5,0.5,0.1,1.8-0.3,3.2
									c-0.1,0.4-0.3,0.9-0.4,1.3c-0.3,1-0.2,2.1,0.1,3.2c0.4,1.2,1,2.4,1.7,3.4c0.6,0.8,1.1,1.5,1.2,2c0.1,0.5,0,0.9-0.7,1.4
									c-0.8,0.7-1.5,1.4-1.9,2.1c-0.5,0.8-0.7,1.6-0.7,2.4s0.5,2,1.2,3.3c0.6,1.1,1.5,2.2,2.5,3.1c0.7,0.6,1.5,1.2,2.4,1.9
									c1.8,1.4,3.8,2.9,4.4,4.1c0.6,1.1-0.4,1.5-1.7,2c-2.5,1.2-3,1.9-2.9,2.8c0.1,0.8,0.7,1.7,1.7,2.7s0.4,2-0.1,2.9
									c-0.3,0.5-0.5,0.9-0.6,1.3c-0.2,1.1,0.2,1.4,1.2,2.2c0.4,0.3,1,0.8,1.8,1.5c1.5,1.5,1.5,1.5,0.9,2.5
									c-1.9,3.4-3.4,6.1-2.9,7.2c0.2,0.5,0.7,0.9,1.3,1.4c0.7,0.6,1.5,1.2,1.5,2c0,1.5-1.6,3.7-4.7,4.8c-3.9,1.4-5.3,1.8-5.2,4
									c0,1,0,1.9-0.2,2.5c-0.2,0.5-0.6,0.9-1.5,1c-3.3,0.5-10.6,1.6-14.2,1.6c-1.8,0-2.3,0-2.8,0s-1.1,0-1.7,0
									c-2.9,0-5.8,0-7.7,0.6s-2.3,1.4-2.8,2.2c-0.2,0.4-0.5,0.9-1.1,1.3c-0.6,0.5-1.6,0.8-2.4,1.1c-1.4,0.5-2.7,0.9-2.8,2
									c-0.1,1.3,0.8,2.1,2,3.1c1.5,1.3,1.2,2.5,1,3.5c-0.1,0.5-0.2,0.9-0.2,1.3c0,0.9,0.5,2,1.1,3.2c0.3,0.6,0.6,1.1,0.8,1.7
									c0.3,0.7,0.2,1.5-0.3,2.3s-1.4,1.5-2.5,2.1c-1.5,0.7-2.2,2.1-2.6,3.5c-0.3,1.4-0.3,2.8-0.2,3.7c0.1,2,0.3,3.9,2.6,6.6
									c1,1.2,1.6,2.1,2.2,2.9c0.7,1,1.3,2,2.5,3.1c1.4,1.3,1.5,2.8,1.7,4.1c0.1,0.5,0.1,1,0.2,1.5c0,0.1,0.1,0.3,0.1,0.4"/>
								<path class="st1" d="M992.5,491.1c0.2,0.2,0.4,0.5,0.7,0.7c-0.2,0.2-0.5,0.5-0.7,0.7"/>
								<path class="st4" d="M990.2,494.4c-0.5,0.5-0.9,0.9-1.1,1.4c-0.4,0.9-0.2,1.8,0,2.7c0.2,0.8,0.3,1.5,0,2
									c-0.2,0.3-0.8,0.4-1.4,0.4c-1.7,0-2.8,0-3.8,0.4c-0.6,0.2-1.2,0.5-1.7,0.7c-1.4,0.6-2.5,1.1-3.9,1.1
									c-1.1-0.1-2.2-0.9-3.4-1.7c-1.1-0.9-2.3-1.7-3.7-2.1c-1.3-0.4-2.7-0.7-3.9-0.7c-1.9,0.1-3,0.4-3.8,1.2
									c-0.7,0.6-1.4,1.6-2,2.5c-0.7,1.1-1.2,2.2-1.4,2.9c-0.1,0.4-1.1,0.8-2.1,1.3c-1.2,0.5-2.4,1.1-2.9,1.8
									c-0.3,0.5-0.6,0.9-0.8,1.3c-0.4,0.7-0.7,1.3-1.4,1.5c-2.1,0.5-3,0.8-3.8,1.4c-0.3,0.3-0.7,0.6-1.1,0.7
									c-3.5-0.2-3.9-0.1-4.4,0c-0.8,0.2-1.3,0.7-1.6,1.4c-0.2,0.6-0.5,1.2-0.9,1.8c-0.4,0.5-1,1.1-1.5,1.5
									c-0.5,0.3-1.5,0.3-2.6,0.3c-1.3,0-2.5,0-3.3,0.5c-0.4,0.3-1.2,0.5-1.9,0.6c-0.8,0.1-1.7,0.2-2.3,0.2
									c-1.2-0.1-1.8-0.2-2.3-0.2c-1.1,0-2.2,0.2-2.8,1.1c-0.7,1-1,1.5-2.5,2c-0.6,0.2-1,0.4-1.5,0.6"/>
								<path class="st1" d="M919,523.7c-0.3,0.1-0.6,0.2-0.9,0.4c-0.1-0.3-0.2-0.6-0.3-1"/>
								<path class="st5" d="M915.8,521c-0.4-0.2-0.8-0.2-1.3-0.3c-1.7,0-2.6,0.1-3.5,0.3c-0.9,0.3-1.7,0.7-2.8,1.3s-3.1,1-4.9,1.4
									c-1.4,0.3-2.7,0.6-3.7,1c-1.2,0.5-2.3,1-3.2,1.5s-1.4,1.1-1.5,1.6c0,0.5,0.3,1.4,1.1,2.1c0.6,0.5,1.4,1,2.3,1.1
									c0.7,0.1,1.3,0.2,1.6,0.3c0.6,0.2,1,0.5,0.6,1.2c-0.3,0.8-1.3,1.6-2.3,2.2c-0.8,0.4-1.6,0.7-2.3,0.7c-1.5-0.3-2.7-1.2-3.9-2
									c-0.8-0.6-1.6-1.1-2.4-1.6c-1-0.5-2.4-1.1-3.8-1.5c-1.5-0.5-3-0.8-4.1-0.9c-0.2,0-0.5-0.1-0.7-0.1"/>
								<path class="st1" d="M879.9,528.4c-0.1-0.3-0.2-0.6-0.1-1c0.3-0.2,0.6-0.4,0.9-0.5"/>
								<path class="st6" d="M882.1,524.5c0-0.1,0-0.2,0-0.2c0-0.7-0.1-1.6,0.4-2c0.3-0.2,1.4-0.3,2.5-0.3c1.8-0.1,3.5-0.1,3.7-1.2
									c0.1-0.8-0.1-1.6-0.3-2.5c-0.2-0.7-0.4-1.4-0.4-1.8c0.1-0.7-0.2-1.8-0.6-2.9c-0.4-1.1-0.9-2.2-1.5-3c-0.4-0.6-0.6-1.3-0.6-2
									c0-1,0.2-2,0.5-2.8c0.6-1.6,1.2-3.4,3.2-3.6c1.6-0.1,2.6-0.5,3.1-1.1s0.5-1.4-0.1-2.5c-0.5-0.9-1-1.7-1.6-2.3
									c-0.6-0.7-1.3-1.2-2.1-1.8c-0.9-0.6-1.7-0.9-2.5-1.1c-0.7-0.2-1.3-0.4-2-0.8c-1.8-1.3-2.4-1.7-4.6-1.8
									c-1.2,0-2.3,0.2-3.2,0.6"/>
								<path class="st1" d="M874.4,491.8c-0.5,0.2-0.8,0.3-1,0.3c0-0.4-0.1-0.7-0.1-1"/>
								<path class="st7" d="M872.3,488.8c-0.5-0.4-1.1-0.6-1.8-0.6c-2.4,0.5-3.5,1.1-4.9,1.9c-0.1,0-0.1,0.1-0.2,0.1"/>
								<path class="st1" d="M864.3,491c-0.4,0.2-0.6,0.4-0.8,0.5c-0.2-0.1-0.5-0.3-0.8-0.6"/>
								<path class="st8" d="M860.8,488.7c0-0.1,0-0.2-0.1-0.3c-0.2-1.4,0.2-2.1,1-3.2c0.2-0.4,0.5-0.8,0.8-1.3
									c0.8-1.3,0.5-2.3,0.3-3.3c-0.2-0.8-0.3-1.5,0.2-2.4c0.6-1,1.5-1.6,2.3-2.2c0.9-0.6,1.7-1.3,2.3-2.2c1.6-2.3,2.5-3.6,2.1-5.6
									c-0.2-0.8-0.2-1.5-0.2-2.1c-0.1-1.1-0.1-2.1-0.7-3.1c-0.5-1.1-1.4-1.5-2.9-1.7c-1.8,0-3.3,0.1-5.3,0.3c-0.1,0-0.3,0-0.4,0"
									/>
								<path class="st1" d="M858.8,461.8c-0.4,0-0.7,0-1,0c-0.1-0.4-0.1-0.7-0.2-1"/>
								<path class="st9" d="M857.1,457.8c-0.1-0.6-0.3-1.2-0.8-2c-0.8-1.5-2.2-1.6-3.8-1.8c-0.7-0.1-1.6-0.2-2.4-0.5
									c-1.1-0.4-0.9-0.8-0.6-1.8c0.2-0.5,0.5-1.1,0.7-1.9c0.7-2.6-1-3.4-3-3.8c-2.9-0.3-3.5-0.1-4.2,0.1c-0.5,0.1-0.9,0.3-1.4,0.3
									c-1.4-0.3-1.8-0.5-2-0.9c-0.2-0.5,0-1.1,0.6-2c0.2-0.4,0.4-0.7,0.7-1c1-1.5,1.6-2.5,0.6-4.3c-0.5-0.9-0.7-1.6-0.7-2.2
									s0.2-1.3,0.7-2.3c0.8-1.7-0.5-2.4-2.1-3.2c-0.8-0.4-1.6-0.8-2.1-1.5c-0.5-0.6-0.8-1.2-1-1.7c-0.5-1.2-0.8-2.1-3.1-2.4
									c-0.6-0.1-1.2-0.1-1.8-0.1c-1.1,0-2.2,0.1-3.2,0.2c-0.9,0.1-1.8,0.1-2.6,0.1c-1.7-0.1-2.3-0.3-2.6-0.8
									c-0.4-0.6-0.5-1.5-0.5-3.1c0-2,0.9-2.4,1.8-2.8c0.6-0.2,1.2-0.5,1.8-1c0.7-0.7,1.3-1.4,1.6-2.2c0.3-0.8,0.3-1.7-0.1-2.8
									c-0.4-1.1-1.8-2-3.2-2.9s-2.8-1.9-3.1-2.8c-0.3-1.1-0.5-2.2-0.4-3.2c0-1,0.2-2,0.5-2.9c0.3-0.8,0.8-1.2,1.5-1.4
									c0.8-0.3,1.9-0.3,3-0.4c1.8-0.1,2.4-1,3-2.1c0.4-0.7,1-1.6,2-2.3c1.3-0.9,2.1-2,2.5-3.2c0.5-1.5,0.4-3.1,0-4.3
									c-0.4-1.2-0.1-2.6,0.3-3.9c0.2-0.7,0.3-1.4,0.4-2c0.1-1.2,0-2.1-0.9-2.9c-0.8-0.7-2.1-1.1-4.4-1.2c-2.1,0-3.8,0.3-5.1,0.8
									c-1.4,0.6-2.5,1.4-3.5,2.4c-1.2,1.1-1.5,2.5-1.9,3.8c-0.3,1.2-0.6,2.3-1.4,2.8c-1.1,0.7-2.7,1-4.4,1.3
									c-1.1,0.2-2.2,0.4-3.3,0.7c-1.2,0.4-2.1,0.8-2.8,1.2c-0.8,0.4-1.4,0.8-2.5,0.7c-1.2-0.1-1.7-0.4-2.2-0.7
									c-0.9-0.5-1.9-1.1-4.5-1.2c-1.9-0.1-3.2-0.2-4-0.5c-0.6-0.2-1-0.5-1.2-1c-0.4-0.8-0.6-4.1-0.7-6.6c-0.1-1.2-0.1-2.2-0.2-2.7
									c-0.1-0.9-0.6-2.1-1.4-3.1c-0.7-1-1.7-1.8-2.7-2.4c-0.8-0.4-1.8-0.6-2.8-0.6c-2.5,0.2-3.9,0.6-4.9,1.3
									c-1,0.6-2.1,0.8-3.6,0.8c-0.8,0-1.7-0.1-2.7-0.2c-2.5-0.1-3.7,0-4.6,0.3c-1.5,0.4-2.6,1-3.2,1.6c-0.6,0.6-0.7,1.3-0.7,2.1
									c-0.1,0.7-0.1,1.5-0.7,2.2c-0.5,0.6-1.1,0.9-1.8,1c-1.5,0-2.2-0.1-2.9-0.3c-1.1-0.3-2.2-0.6-3.2-0.7c-1.3,0-2.3,0.2-3.3,0.7
									c-1.1,0.6-1.7,1.2-2.1,2c-0.4,0.7-0.5,1.4-0.5,2.1c0,0.8,0.5,1.6,1.3,2.3c0.8,0.6,1.7,1.2,2.7,1.7c0.6,0.3,1.3,0.6,2.2,0.9
									c2.1,0.8,4.8,1.8,5.6,3.1c0.6,1,1.3,2.5,1.8,4s0.9,3,1,3.8c0,0.9,0,2.5,0,4c0,1.4,0,2.9,0,3.8c0,0.5,0,1,0,1.4
									c-0.1,1.3-0.1,2.3,1,3.7c0.3,0.4,0.6,0.7,0.9,1c0.9,1,1.7,1.9,1.6,2.8c0,0.6-1.5,1.2-2.8,1.8c-0.7,0.3-1.4,0.6-1.9,1
									c-0.6,0.5-1.4,1.2-2,2s-1.2,1.7-1.3,2.3c-0.1,0.2-0.7,0.4-1.6,0.5c-2,0-2.9-0.1-3.8-0.3c-1.1-0.3-1.7-0.5-2.3-0.6
									c-1.7-0.5-3.3-1-4.9-1c-1,0-1.9,0.1-2.9,0.5c-2.8,1.1-4.6,2.7-6.1,3.9c-0.8,0.7-1.7,1.1-2.8,1.4c-1.2,0.3-2.5,0.5-4.1,0.7
									c-2.2,0-3.1-0.1-3.9-0.3c-1-0.2-2-0.3-3.4-0.4c-2.9,0-4.8,1.4-6.5,2.6c-1,0.8-2,1.5-2.9,1.7c-1.4,0.1-2.1-0.1-2.7-0.4
									c-1.1-0.5-2.2-1.5-3-2.5c-0.7-1-1.1-2-1.1-2.8c0-0.7,0.2-1.3,0.8-1.5c0.7-0.3,1.8-0.5,3-0.7c1.7-0.3,3.5-0.6,4.2-1.3
									c0.8-0.7,1-1.5,1.2-2.5c0.2-0.6,0.3-1.3,0.6-2c0.8-1.7-1.1-2.6-3.1-3.5c-0.7-0.3-1.4-0.6-1.9-1c-2.6-1.6-4.4-2.6-3.1-4.8
									c1.2-2,1.2-3.6,1.2-5.2c0-0.8,0-1.7,0.2-2.6c0.2-1,0.7-1.9,1-2.6c0.6-1.2,1.1-2.2,0.4-3.3c-0.6-1-2.7-2-5.1-3
									c-1.6-0.7-3.2-1.5-4.7-2.3c-1-0.6-1.9-1.1-2.8-1.6c-2-1.1-3.6-2.1-6-3.7c-1.4-0.9-2.8-1.5-4.2-2c-1.9-0.7-3.5-1.3-3.5-2.7
									c-0.1-1.5-0.4-2.8-1.1-3.8c-0.7-1-1.9-1.8-3.4-2.3c-1.9-0.6-3.5-1-4.9-1.1c-1,0-1.8,0.2-2.5,0.7c-0.9,0.6-1.5,1.4-1.7,2.3
									s0.2,1.9,1.5,3.1c0.9,1,0.9,2.1,0.6,3.1c-0.3,1-1,2-1.8,2.5c-1.2,0.6-2.4,0.8-3.7,1c-1.7,0.3-3.5,0.6-5.4,1.5
									c-1.6,0.8-2.1,1.4-2.6,2c-0.5,0.7-1.1,1.4-3.5,2.5c-0.6,0.3-1.3,0.6-2,1c-3.3,1.6-5.5,2.6-10.1,4.2
									c-3.6,1.2-6.9,1.3-9.9,1.3c-0.7,0-1.5,0-2.2-0.1c-0.8,0-1.6-0.1-2.2-0.1c-3.1-0.1-4.8,0.7-6.4,1.5c-0.8,0.4-1.5,0.7-2.4,0.9
									c-0.7,0-1.3,0-1.8,0"/>
								<path class="st1" d="M619.5,401.1c-0.3,0-0.7-0.1-1-0.1c0-0.5-0.3-1-0.6-1.6"/>
							</g>
							<g>
								<path class="st1" d="M820.7,297.3c0.1-0.4,0.1-0.7,0-1"/>
								<path class="st1" d="M820.5,298.3c0.1-0.3,0.2-0.6,0.2-1"/>
							</g>
						</g>
					</g>
				</g>
				<g>
					<g>
						<path class="st10" d="M1271.3,360.7c1.1,0.1,1.9,1.1,1.8,2.3c-0.1,2,0.6,4.8,2.3,6.1c0.4,0.4,1.1,1,1.9,1.6
							c1.8,1.6,4,3.6,5.9,4.5c3.2,1.6,4.6,1.8,3.2,4.2c-0.9,1.8-1.8,4.3,1.4,4.2c2.7-0.2,4.3,0.2,6.9,1.8c3.5,2,5.1,4.6,1.2,6.8
							c-0.6,0.3-1.1,0.6-1.9,1.4c-0.8,0.9-0.9,1.9-0.9,2.7c-0.1,0.6-0.1,1.1-0.3,1.1c-1.8,0.1-1.9,2.5-3.8,2.2
							c-1.9-0.4-0.8-3-2.3-3.8c-1.8-1-5.8-2.2-8.2-2.5c-1.1-0.2-2.6-0.1-3.3,0.3c-2,0.8-3.7-1.4-5.5-1.4c-1.5-0.1-2.6,1-3,2.3
							c-0.3,0.7-0.6,1.4-1.2,1.5c-0.5,0.1-1-0.1-1.3-0.4c-0.4-0.4-0.9-0.8-2-0.9c-1-0.2-2.3,0.1-2.8,0.5c-0.2,0.1-0.3,0.2-0.5,0.2
							c-0.8-0.2-2.2-1.5-2.6-2.1c-1-1.2-4.2-0.5-5.8-1.1c-1.7-0.6-3-0.4-4.7,0.1c-2.5,0.6-4.9,1.5-7.6,1.1c-2-0.2-1.1-2.7-1.1-4.2
							c0.1-2,0.2-3.1,1.4-4.7c0.7-1,1.1-1.7,1.4-2.5c0.6-1.8,0.8-5.2,0.6-7c-0.2-1.9,0.1-4,0.9-5.5c0.4-0.6,0.9-1.1,1.6-1.2
							c1.5-0.3,1.9-0.9,2.2-1.5c0.3-0.7,1.2-1.1,1.9-1c0.6,0,1.3,0,2.2-0.4c1.4-0.5,2-1.5,3.5-1.5c0.8,0,1.9,0.5,3.1,1
							c2.3,1,6.2,2.5,7.3-0.4c0.3-0.6,0.6-1.2,1.5-1.1c2.6,0.2,4.4,0.9,5.7-1.9C1270.8,361.1,1271.1,360.7,1271.3,360.7
							L1271.3,360.7z"/>
					</g>
				</g>
				<g>
					<g>
						<g>
							<g>
								<path class="st1" d="M1396.6,496.4c-0.3,0-0.7-0.1-1-0.1"/>
								<path class="st11" d="M1393.1,496.1c-1.2,0.4-1.8,1.1-2.2,1.9"/>
								<path class="st1" d="M1390.4,499.2c-0.2,0.4-0.3,0.8-0.4,0.9c-0.4,0-0.7-0.1-1-0.1"/>
								<path class="st12" d="M1386.2,499.2c-1.3-0.1-2,0.2-2.8,0.6c-0.9,0.4-2,1-3.4,1.2c-1.1,0.1-2.1,0.2-3,0.2
									c-1.6,0.1-3.1,0.2-5.1,0.8c-1.4,0.4-2.3,0.6-3.1,0.7c-1,0.2-1.8,0.3-3.2,0.8c-0.3,0.1-0.8,0.3-1.2,0.4
									c-1.7,0.6-2.6,0.9-4,2.6c-0.3,0.4-0.7,0.5-1.1,0.5c-0.3,0-0.7-0.1-1.1-0.3c-0.8-0.4-1.6-1.1-2.4-1.7c-1-0.8-2.7-1.4-4.6-1.7
									c-1.5-0.3-3.1-0.4-4.5-0.4c-0.8,0-1.4,0-2.1,0.1c-2,0.2-3.1,1.1-4.1,2.1c-0.7,0.6-1.4,1.3-2.5,1.7c-1.8,0.7-2.1,1.9-2.4,3
									c-0.2,0.8-0.4,1.5-1.3,1.7c-1.3,0.3-2.5,0.7-3.4,1.3c-1,0.6-1.6,1.5-1.6,2.7c0,0.8,0.1,1.4,0.3,2c0.3,1.1,0.5,2.2-0.4,3.8
									c-0.8,1.3-1,2.9-1.2,4.3c-0.2,1.3-0.4,2.5-0.9,2.8c-0.2,0-0.8-0.4-1.5-1c-1.3-1-2.9-2.2-5.1-2.2c-2.4,0.1-5.1,0.7-7.8,1.2
									c-2.5,0.5-5,1-7,1.2l-1.3,0.1c-2.9,0.3-5.5,0.5-8.8,0.5c-0.7,0-1.5,0-2.3-0.1c-2.9-0.2-4.2-0.7-5.4-1.1
									c-0.9-0.3-1.7-0.6-2.9-0.8c-0.5-0.1-0.9-0.1-1.2-0.1c-0.7,0-1.2,0.1-1.7,0.1c-1.4,0.1-1.8,0-2.5-0.4
									c-0.8-0.4-1.4-0.8-1.9-1.2c-0.8-0.6-1.6-1.2-3.5-2c-1.5-0.6-2.2-1.2-2.8-1.7c-0.6-0.5-1.1-1-2.1-1.4
									c-0.4-0.2-0.8-0.2-1.2-0.2c-0.9,0-1.6,0.5-2.3,1c-0.5,0.4-1.1,0.8-1.8,1c-2,0.4-4.7,1.2-7.1,2c-1.3,0.4-1.7,0.5-2.1,0.5
									c-0.7,0-1.4-0.2-2.1-0.4c-0.8-0.2-1.7-0.5-2.8-0.7c-1.1,0-1.8,0.1-2.3,0.3"/>
								<path class="st1" d="M1246.4,523.9c-0.2,0.2-0.5,0.4-0.9,0.4c-0.2-0.3-0.4-0.6-0.5-0.8"/>
								<path class="st13" d="M1245.9,521.2c0.7-0.4,1.4-0.8,1.6-1.5s0-1.5-0.3-2.4c-0.3-1-0.6-2-0.4-3.1c0.2-0.8,0.5-1.5,0.7-2
									c0.3-0.9,0.6-1.5,0.4-2.4c-0.1-0.7-0.5-1.8-1.1-2.9c-0.5-1-1.2-2-2-3c-0.9-1.1-1.7-2-2.7-2.8s-2-1.3-3.3-1.5
									c-1.5-0.3-3.3-2-4.5-3.1c-0.2-1.2,0.6-2.6,1.3-3.2c0.3-0.3,0.9-0.6,1.5-1c1.2-0.7,2.6-1.5,2.9-2.6c0.2-0.5,0.6-1.1,1.2-1.6
									c0.7-0.7,1.6-1.3,2.4-1.7c0.4-0.2,0.8-0.5,1.1-0.8c0.5-0.5,0.9-1,1-1.6s0-1.3-0.5-1.9c-0.2-0.3-0.5-0.5-0.8-0.7
									c-0.9-0.6-1.4-1.2-1.7-2c-0.3-0.8-0.4-1.6-0.4-2.8c-0.1-2-0.8-4-1.4-5.6c-0.1-0.3-0.2-0.6-0.3-0.9c-0.6-1.7-2.5-2.5-4.9-3.4
									c-0.4-0.2-0.8-0.3-1.2-0.5c-1-0.4-1.6-1.2-2.1-1.9c-0.8-1.1-1.6-2.2-3.8-2.5c-1.4-0.2-1.9-0.7-2.4-1.3
									c-0.7-0.8-1.5-1.6-3.9-2.5c-1.3-0.4-2.5-0.6-3.5-0.6s-1.9,0.1-2.7,0.2c-0.6,0.1-1.1,0.1-1.5,0.1c-1.7-0.6-2.1-1.1-2.6-1.7
									c-0.8-1-1.7-2.1-3.8-2.4c-1.4-0.3-2.5-0.5-3.6-1c-1.1-0.4-2.2-1-3.6-2c-1.5-1-2.8-1.8-4.2-2.3c-1.2-0.5-2.3-0.7-3.5-0.7
									c-2.2,0.1-3.4,1-4.6,1.8c-1,0.7-1.9,1.3-2.7,1.3c-1,0-2.2-0.3-3.3-0.6c-1-0.4-2-0.9-2.6-1.4c-0.7-0.6-1.7-1.6-2.8-2.4
									c-1.2-0.9-2.4-1.6-3.6-1.7c-1.9-0.1-2.7,0-3.5,0.2c-0.4,0.1-0.8,0.1-1.1,0.2c-0.8,0-1.1-0.1-1.5-0.3c-0.6-0.2-1.5-0.6-3.1-1
									c-2.7-0.7-2.9-2.3-3.2-4.7c0-0.2-0.1-0.4-0.1-0.9c-0.3-2.4-1.2-2.9-3-3.9c-0.7-0.4-1.6-0.9-2.6-1.6
									c-2.4-1.8-3.4-2.8-4.2-3.8c-0.3-0.4-0.7-0.8-1.1-1.2c-0.7-0.7-1.7-2.3-2.2-3.9c-0.4-1.2-0.6-2.4-0.3-3.2
									c0.2-0.6,0.6-1.2,1-1.8c0.9-1.4,1.8-2.8,1.5-4.5c-0.1-0.9-0.6-1.7-1.2-2.6c-0.9-1.4-1.8-2.9-1.1-5.4c0.6-1.9,1-2.8,1.4-3.4
									c0.4-0.8,0.7-1.3,0.7-2.7c0-1.7,0.5-2.4,1-3.4c0.2-0.3,0.4-0.7,0.6-1.2c0.5-1.1,0.6-2.3,0.6-3.6c0-1,0.1-2,0.3-2.9
									c0.3-1.5,1.2-2.9,1.9-3.9c0.3-0.5,0.6-1,0.7-1.3c0.3-0.8,0.1-1.5-0.3-2.1s-1-1.1-1.8-1.3c-0.9-0.2-1.6-0.3-2.1-0.6
									c-0.4-0.2-0.6-0.5-0.6-0.9s-0.1-0.8-0.4-1.2c-0.3-0.3-0.7-0.6-1.1-0.8c-0.4-0.2-0.9-0.3-1.4-0.3s-1.1,0.1-1.5,0.3
									c-0.7,0.4-1.3,1.2-1.9,2c-0.5,0.7-1,1.4-1.2,1.5c-1.4-0.6-1.7-1-1.9-1.5c-0.1-0.5-0.1-1-0.1-1.4c0.1-0.9,0.1-1.6-0.8-2.4
									c-0.5-0.4-0.7-0.7-0.8-0.9c-0.1-0.3,0.1-0.6,0.3-1c0.4-0.6,1.3-2.2,2-3.7c0.4-0.9,0.8-1.9,0.8-2.5s0.2-1,0.6-1.4
									s1.1-0.7,2.1-1c1.2-0.3,2.2-1,2.8-1.9c0.7-0.9,1.1-2.1,1.1-3.2c0.1-1.5-0.5-2.7-1.1-3.9c-0.2-0.5-0.5-0.9-0.7-1.5
									c-0.3-0.7-0.5-1.8-0.7-2.8c-0.3-1.5-0.4-3-0.4-3.5c0-0.4,0.2-1,0.4-1.6c0.3-0.6,0.7-1.2,1.1-1.8c0.6-0.7,1-1.4,1.3-2.1
									c0.2-0.8,0.2-1.5-0.1-2.3c-0.4-0.8-0.6-2-0.8-2.9c-0.1-0.6-0.2-1.1-0.3-1.5c-0.2-0.7-0.9-1.6-2.2-2.3
									c-0.9-0.5-2.2-0.9-3.9-1c-0.8-0.1-1.6-0.1-2.2-0.1c-1.6,0-2.3-0.1-2.6-1.4c-0.2-1.1-0.8-2-1.5-2.6c-0.4-0.3-0.8-0.6-1.3-0.7
									c-0.3-0.1-0.7-0.2-1.1-0.2c-1,0.1-1.5,0.3-2,0.7c-0.5,0.4-0.8,0.8-1.2,1.1c-0.7,0.7-1.1,1.2-3.8,1.2c-0.4,0-0.8,0-1.2,0
									c-2.5-0.1-3.3-0.3-5.5-0.8l-1.2-0.3c-1.7-0.5-3.2-0.9-4.4-1.2c-1.2-0.4-2.1-0.7-2.7-1.1c-0.7-0.4-0.7-1.7-0.7-2.7
									c0-0.5,0-0.9-0.1-1.2c-0.2-1.1-1.4-1.4-2.8-1.7c-0.7-0.2-1.3-0.4-1.8-0.6c-0.4-0.2-0.7-0.9-1-1.5c-0.5-1.1-1-2.3-2.6-2.6
									c-1.8-0.1-2.5,0.1-3.2,0.3c-0.6,0.2-1.2,0.4-2.1,0.4c-1.1,0-1.6-0.2-2-0.5c-0.5-0.3-0.9-0.9-1.2-1.6c-0.5-1.1-2-1.9-3.4-2.6
									c-0.9-0.5-1.7-0.9-2.1-1.3l-0.1-0.1"/>
								<path class="st1" d="M1086.9,309.7c-0.3-0.1-0.6-0.3-0.9-0.4c0.3-0.1,0.6-0.2,1-0.3"/>
								<path class="st14" d="M1089.9,308.8C1089.9,308.8,1090,308.8,1089.9,308.8c1.7-0.1,3.3-0.1,4.2-0.4c1.2-0.4,1.6-1,1.5-1.8
									c-0.1-0.6-0.6-1.3-1.2-2.1c-0.7-0.9-1.8-1.2-3-1.5c-1-0.3-2-0.5-2.4-1.2c-0.2-0.3-0.5-0.7-0.7-1c-1.1-1.6-2.2-3.3-4.1-3.3
									c-0.8,0-1.7-0.1-2.6-0.5c-0.8-0.4-1.6-0.9-2.2-1.9c-0.7-1.2-1.4-2-2.1-2.6c-0.5-0.6-1-1.1-1.2-1.6c-0.3-0.5-0.4-1-0.1-1.5
									c0.2-0.5,0.9-1,2.1-1.5c1.5-0.6,2.5-1.6,3.4-2.5c1-1,1.9-1.9,3.1-2.1c0.5-0.1,1.1-0.2,1.7-0.3c2.9-0.5,6.9-1.1,8.3-2.6
									c0.8-0.8,1.8-1.7,2.9-2.6s2.3-1.8,3.7-2.6c1.3-0.8,2.2-1.2,2.9-1.2c0.6,0,1.1,0.3,1.6,0.8c0.4,0.4,0.5,1,0.3,1.5
									c-0.2,0.7-0.7,1.4-1.1,2c-0.3,0.4-0.4,0.8-0.4,1.2c0,0.3,0.1,0.6,0.3,0.9s0.5,0.5,0.8,0.6c0.4,0.2,1,0.3,1.7,0.4
									c1.9,0,4.1-1.3,5.5-2.1c1.2-0.7,2-0.8,2.8-0.9s1.8-0.2,2.9-0.5c1.4-0.4,2.2-1.1,2.9-1.9c0.5-0.5,1.1-1.1,1.9-1.5
									c2.2-1.1,2.2-2.5,2.2-4.2c0-1.5,0.2-2,0.5-2.4c0.4-0.4,0.9-0.8,1.8-1.2c0.4-0.2,0.9-0.3,1.5-0.3s1.2,0.1,1.9,0.2
									c0.8,0.1,1.7,0.3,2.6,0.3s1.9,0.3,2.8,0.5s1.9,0.5,2.7,0.5c0.5,0,1,0,1.5-0.2s1-0.5,1.4-0.7c0.6-0.3,1.2-0.7,1.8-0.6
									c1.6,0.6,2.1,1.1,2.7,1.6c1.4,1.3,3.2,2.8,6.6,3.3c3.9,0.6,5.5,1.6,7.7,3.1c0.3,0.2,0.7,0.5,0.9,0.6
									c1.3,0.9,2.5,1.8,3.5,2.6c1.3,1,2.5,2,3.4,2.4c0.6,0.2,1.2,0.3,1.8,0.4c0.5,0,1.1,0,1.8-0.1c0.7,0,1.6-0.1,2.5-0.1
									c0.5,0,0.9,0,1.4,0.1c1.7,0.2,2.8,0.7,3.9,1.1c1,0.4,2,0.8,3.4,1.1c0.4,0.1,0.8,0.1,1.1,0.1c0.9,0,1.5-0.2,2-0.4
									c2.4,0.3,3,0.9,3.6,1.5c0.9,0.9,1.8,1.9,3.6,2.1c0.7,0.1,1.3,0.2,1.7,0.2c1.2,0.1,1.5,0.2,2.1,1c1.5,1.9,2.6,3.3,5,3.4
									c1,0,1.4,0,1.7,0c0.9,0,1.6,0.2,2.5,0.4c0.9,0.2,2,0.5,3.7,0.7c1,0.1,1.8,0.2,2.5,0.2c0.8,0,1.5,0,2.1,0c0.5,0,0.9,0,1.3,0
									c0.6,0,1.2,0.1,1.8,0.3c0.9,0.3,1.6,0.8,2.3,1.4c0.9,0.7,1.6,1.3,2.6,1.3c0.4,0,0.9-0.1,1.4-0.4c0.9-0.5,1.7-1.4,2.7-2.3
									c1.2-1.2,2.6-2.6,4.2-3.4c0.7-0.3,1.1-0.5,1.5-0.7c1.9-0.9,2.3-1.1,3.3-2.3c0.4-0.5,0.7-1.2,1-1.9c0.4-0.9,0.8-1.7,1.2-1.8
									c0.3,0,1.4,0.6,2.6,1.2c1.7,0.9,3.6,1.9,5.1,2c2.3-0.5,3.3-2.1,4.2-3.5c0.4-0.7,0.8-1.3,1.1-1.6c0.4-0.4,1.2-0.7,2-0.9
									c1-0.2,2.2-0.3,3.2-0.3s1.8,0.4,2.5,0.8c0.7,0.5,1.2,1.1,1.3,1.7c0.1,0.6,0.6,1.2,1.2,1.5c0.4,0.3,0.9,0.5,1.4,0.5
									c0.9,0.1,1.2,0,1.6-0.1c0.5-0.2,0.9-0.5,1.1-1c0.3-0.6,0.6-1.4,0.9-2.3c0.4-1.3,0.9-2.7,1.4-3c0.4-0.3,1.7-0.6,2.9-1
									c1.5-0.4,3-0.9,3.6-1.4s1.2-1.5,1.5-2.7c0.3-1,0.4-2.2,0.2-3.3c-0.2-1-0.1-1.9,0.4-2.9s1.3-1.9,2.7-3
									c1.3-1.1,2.5-1.8,3.7-2.2c1.2-0.4,2.3-0.6,3.4-0.7c0.4,0,0.8,0,1.1,0c1.1,0,2.2,0.2,3.7,0.4c0.9,0.1,2,0.3,3.3,0.5
									c1.1,0.1,2.3,0.3,3.5,0.5c2.4,0.4,4.9,0.8,7.1,0.8c0.7,0,1.3,0,1.9,0c2.7-0.2,3.6-0.7,5-1.3c0.5-0.2,1-0.5,1.7-0.7
									c1.2-0.5,1.9-1,2.4-1.4c0.3-0.3,0.6-0.5,1.1-0.5c1.1,0.2,2.4,0.4,3.5,1.1c1.1,0.6,2.1,1.5,2.5,3.1c0.5,1.7,1.2,4,2.3,6.2
									c1.1,2.2,2.6,4.4,4.7,5.9c1.9,1.4,2,2.4,2.1,3.1c0.1,1,0.2,1.5,2,1.9c1.6,0.3,4,0.7,6.4,0.8c2.2,0.1,4.3-0.2,5.6-1.1
									c1.3-1,2.4-2.2,3.6-3.5c1-1.1,2-2.3,3.1-3.2c0.8-0.6,3.1-1.4,5.8-2"/>
								<path class="st1" d="M1360.6,269.5c0.3-0.1,0.7-0.1,1-0.2"/>
							</g>
						</g>
					</g>
				</g>
				<g>
					<g>
						<g>
							<path class="st1" d="M1234.4,496.4c-0.1-0.1-0.4-0.4-0.8-0.6"/>
							<path class="st15" d="M1231.3,493.8c-0.8-0.5-1.8-0.9-2.7-0.9c-0.9,0-1.7,0.3-2.4,0.6c-0.6,0.2-1.2,0.5-1.8,0.5
								c-1.3-0.3-2.2-0.8-3.2-1.4c-1-0.5-2.1-1.2-3.5-1.8c-1.1-0.5-2.1-0.7-3.1-0.7c-2.6,0.2-3.9,0.9-4.6,1.5
								c-0.6,0.5-1.4,1.2-2.4,1.8c-0.9,0.5-1.8,1-2.5,1s-1.5-0.3-2.4-0.6c-1-0.4-2-0.7-3-0.7c-1.8,0.2-2.2,0.6-2.7,1.1
								c-0.3,0.4-0.8,0.8-1.8,1.4c-1.2,0.6-2.1,1.1-3,1.4s-1.8,0.5-3,0.4c-1.8,0-4.8,0.2-7.2,0.3c-1.1,0.1-2.1,0.1-2.7,0.2
								c-0.6,0-1.1,0.1-1.7,0.1c-0.8,0.1-1.7,0.2-2.6,0.1c-0.4,0-0.8,0-1.3-0.1c-1.7-0.1-2.4,0.3-2.9,0.8s-0.8,1.2-0.9,1.8
								c-0.2,0.8-0.3,1-2.7,1c-1.5,0-2.6,0.3-3.8,0.7c-1.5,0.4-3.2,0.9-6.1,0.9c-5.7-0.1-6.8,0.9-8.3,2.4c-0.3,0.3-0.7,0.6-1.1,1
								c-1.9,1.5-1.9,2.7-2,4.3c0,0.5,0,1.1-0.1,1.8c-0.2,1.2-1.1,2.1-2,2.9c-1,0.9-1.8,1.8-1.9,3c0,1.3,0.7,2.8,1.3,4.2
								c0.4,1,0.8,1.9,0.9,2.5c0.1,1,0,1.7,0,2.6c0,0.5-0.1,1.1-0.1,1.7c0,0.7-0.6,1.7-1.3,2.8c-1,1.6-2.1,3.5-2.1,5.3
								c-0.1,2.9,0.2,3.5,1.5,6.1c0.9,1.8,1.2,2.8,1.4,3.7c0.1,0.9,0.1,1.8,0,2.9c-0.2,2.3,0.1,2.8,1.1,4.5c0.4,0.8,0.7,1.3,0.9,1.7
								c0.5,1,0.9,1.7,1.8,2.6c0.4,0.4,0.4,0.8,0.4,1.1c-0.1,0.7-0.1,1.4,1,2.1c0.7,0.5,1.8,1,3,1.4c0.3,0.1,0.5,0.2,0.8,0.3"/>
							<path class="st1" d="M1153.6,564.8c0.3,0.2,0.6,0.3,0.9,0.5c-0.3,0.1-0.6,0.3-0.9,0.5"/>
							<path class="st16" d="M1151.8,568C1151.8,568,1151.8,568.1,1151.8,568c-0.6,1.5,0.4,2.4,1.5,3.3c0.6,0.5,1.2,1,1.3,1.5
								c0.2,1-0.8,2-2.1,3.4c-0.4,0.4-0.9,0.9-1.3,1.4c-0.7,0.8-1.2,1.5-1.6,2.2c-0.8,1.2-1.3,2-2.2,2c-0.9-0.1-1.4-0.5-1.8-0.9
								c-0.6-0.5-1.2-1-2.3-1.3c-0.4-0.1-0.7-0.1-1-0.1c-0.7,0-1.3,0.2-1.8,0.4c-0.4,0.2-0.8,0.3-1.4,0.3c-1.2-0.2-2-0.4-2.7-0.6
								c-1.3-0.4-2.6-0.8-4-0.8c-0.4,0-0.7,0-1.1,0.1c-0.9,0.1-1.6,0.3-2.2,0.5s-1.1,0.3-1.7,0.3c-0.3,0-0.6-0.1-1-0.2
								c-0.8-0.3-1.2-0.9-1.7-1.6c-0.4-0.7-0.9-1.4-1.9-2.2c-1.2-1-2-1.2-2.9-1.5c-0.6-0.2-1.3-0.4-2.3-1c-1.2-0.8-2.6-1.4-4.1-1.8
								c-1.1-0.3-2.3-0.5-3.6-0.5c-0.3,0-0.6,0-1,0c-1.4,0.1-2.4,0.3-3.3,0.4c-0.9,0.2-1.6,0.3-2.6,0.3c-0.3,0-0.7,0-1-0.1
								c-1.5-0.2-2.1-1.1-2.7-2.1c-0.4-0.6-0.7-1.2-1.3-1.8c-0.8-0.9-0.8-1.6-0.8-2.3c0-0.6,0-1.1-0.2-1.7c-0.3-0.8-1.1-1.3-2-1.7
								c-1.1-0.4-2.4-0.6-3.6-0.6c-1.6,0-2.9,0.3-4.1,0.7c-0.6,0.2-1.2,0.3-1.8,0.5c-1.2,0.1-1.5-0.1-1.9-0.3
								c-0.5-0.2-1.1-0.4-2-0.7c-0.7-0.2-1.2-0.3-1.7-0.3c-0.8,0-1.3,0.2-1.9,0.5c-0.3,0.1-0.6,0.3-1,0.3c-0.7,0.1-1.6,0.3-2.5,0.3
								c-1.1,0-1.7-0.1-2.1-0.3c-0.7-0.3-1.2-0.7-1.7-1.1c-0.5-0.4-0.8-0.8-1.1-1.4c-0.2-0.5,0.1-1.2,0.4-1.8s0.5-1.1,0.5-1.7
								c0-0.7-0.3-1.6-0.7-2.5c-0.4-0.7-0.9-1.5-1.5-2.1c-0.8-0.7-1.6-1.2-2.4-1.4s-1.8-0.3-2.9-0.3s-1.3-0.3-1.6-0.9
								c-0.1-0.3-0.3-0.6-0.5-1c-0.5-0.8,0.6-1.6,1.5-2.3c0.3-0.2,0.5-0.4,0.8-0.6c0.4-0.3,1.4-0.7,2.4-1.1c1.4-0.5,2.8-1.1,3.7-1.8
								c1.4-1.3,0.6-2.2-0.7-3.7c-0.3-0.3-0.6-0.6-0.8-1c-0.7-0.9-0.9-1.7-1.1-2.5s-0.4-1.7-1.2-3c-1.3-2.1-3.5-3.2-5.9-4.4
								c-0.5-0.2-1-0.5-1.3-0.7c-1.7-0.9-3.1-1-4.5-1.1c-1.1-0.1-2.3-0.2-3.6-0.7c-1.8-0.8-3.4-0.9-5.1-1c-0.5,0-1.1,0-1.7,0
								c-0.7,0-1.3,0-2.1,0c-3.4-0.1-6-1.2-7.7-1.8c-0.3-0.1-0.7-0.3-0.9-0.4c-0.8-0.3-1.8-0.4-2.8-0.4c-0.4,0-0.8,0-1.2,0
								c-0.4,0-0.8,0-1.3,0s-1,0-1.5-0.1c-1-0.1-1.6-0.3-2-0.6c-0.4-0.4-0.6-1.1-0.8-2.3c-0.2-1-0.1-1.9,0-2.7
								c0.2-1.1,0.3-2-0.4-3.1c-0.6-0.9-1.7-2.9-2.5-4.8c-0.6-1.4-1.1-2.8-1.1-3.6c0-0.7,0.6-1.3,1.1-2c1-1,1.9-2,0.9-3.5
								c-0.9-1.5-1.7-1.5-3.2-1.5c-0.8,0-2,0-3.8-0.5c-1.9-0.5-3-1.2-4-1.8c-1.3-0.8-2.5-1.5-4.7-1.6c-1.6,0-2.4,0-3.2,0
								c-0.7,0-1.3,0-1.9,0c-1.3,0-2.4-0.1-3-0.5c-0.3-0.2-0.7-0.4-1.1-0.7"/>
							<path class="st1" d="M995.1,491.7c-0.3-0.2-0.5-0.4-0.8-0.7"/>
						</g>
					</g>
				</g>
				<g>
					<g>
						<g>
							<line class="st1" x1="918" y1="524.1" x2="917.2" y2="524.7"/>
							<path class="st17" d="M915,526.5c-0.3,1.1-0.2,2.4,0,3s0.9,1.5,1.9,2.5c0.9,0.8,2,1.7,3.4,2.5c1.1,0.6,1.8,1.2,2.4,1.6
								c1,0.8,2,1.4,3.9,2.2c2.3,1,3.1,2.6,3.9,4.3c0.2,0.4,0.4,0.8,0.6,1.2c1.2,2.2,3.8,2.7,6,3c1.6,0.3,2.8,0.5,3.8,0.9
								c0.9,0.3,1.7,0.6,2.4,0.9c0.7,0.4,1.6,0.8,2.3,1.3c0.6,0.4,1,0.9,1,1.2s-0.1,0.5-0.4,0.8c-0.4,0.3-1.1,0.6-1.8,0.9
								c-2.4,0.8-5.1,1.6-5.5,2.4c-0.2,0.5-0.5,1.1-0.3,1.9c0.1,0.6,0.3,1.3,0.8,2c0.5,0.8,0.1,2-0.3,3.2c-0.3,0.8-0.5,1.5-0.5,2.2
								c0,0.9,0.2,1.7,1,2.5c0.7,0.7,1.8,1.4,3.5,2.2c1.5,0.8,2.6,1.4,3.1,2c0.3,0.4,0.4,0.7,0.1,1c-0.4,0.4-1.1,0.6-1.8,0.8
								s-1.5,0.2-2.1,0.2c-1-0.1-1.6-0.2-2.3-0.3c-1.7-0.3-4.1-0.6-6.3-0.7c-0.4,0-0.7,0-1.1,0c-1,0-1.7,0.1-2.3,0.1
								c-2.5,0.2-3.9,0.7-3.5,2.7c0.2,1.1,0.9,2,1.5,2.9c0.5,0.7,0.9,1.2,0.8,1.5c-0.1,0.3-1.9,0.4-3.6,0.6
								c-1.4,0.1-2.8,0.2-3.4,0.6c-0.9,0.7-1.2,1.2-1.3,1.7c-0.1,0.6,0,1.2,0.5,1.6c0.9,0.7,1.8,0.8,2.8,0.8c1.7,0,2.4,0.1,3,0.3
								c0.8,0.4,1.4,0.9,1.8,1.5c0.4,0.5,0.6,1,0.5,1.5c-0.1,0.4-0.5,0.6-1,0.8c-0.8,0.4-1.6,0.8-1.7,1.7c0,0.3,0,0.7,0,1
								c0,1-0.1,1.9-0.8,2.3c-0.5,0.2-1.5,0.4-2.5,0.6c-1.8,0.3-3.7,0.6-4.1,1.6c-0.1,0.3-0.3,0.5-0.4,0.8c-0.5,1-1.1,2.3-1.8,3.4
								c-0.6,1-0.6,2.8-0.5,4.6c0.1,1.1,0.1,2.2,0,2.9c-0.2,0.8-0.6,1.2-0.9,1.6c-0.4,0.5-0.8,0.8-0.8,1.5c0,0.3-0.3,0.5-0.6,0.7
								c-0.5,0.3-1,0.7-1.5,1.5c-0.4,0.8-0.7,1.5-0.7,2.2c-0.1,0.8,0.1,1.5,0.4,2.2c0.4,0.9,0.8,1,1.5,1.2c0.3,0.1,0.7,0.2,1.3,0.6
								c1,0.5,2.2,0.9,3.4,1.1c1.7,0.1,2.5-0.1,2.8-0.5c0.5-0.5,0.6-1.2,0.7-1.9c0.1-0.6,0.2-1.2,0.4-1.5c0.3-0.4,0.8-0.8,1.3-1.1
								s1.1-0.4,1.9-0.4c0.9,0,1.7,0,2.5,0.2c0.7,0.1,1.3,0.4,1.8,0.8c0.5,0.4,0.9,0.9,1.3,1.4c0.5,0.7,0.9,1.4,1.1,2
								c0.2,0.4,0.2,0.7,0.1,0.8c-1.2,0.6-1.8,0.9-2.3,1.3c-0.4,0.4-0.7,0.9-0.8,1.4s-0.2,1.3-0.1,2c0,0.7,0.2,1.3,0.4,1.8
								c0.1,0.3,0,1.2-0.1,2.2c0,0.4-0.1,0.7-0.2,1.1"/>
							<path class="st1" d="M928.9,631.7c0,0.4,0,0.7,0.1,1l1.7,0.6"/>
						</g>
					</g>
					<g>
						<g>
							<line class="st1" x1="863.5" y1="491.5" x2="862.7" y2="492.1"/>
							<path class="st18" d="M860.2,493.8l-0.5,0.3c-1.7,0.1-1.7,1.5-1.6,3c0,0.9-0.1,2.2-0.6,3.6c-0.4,1-1,2.1-2,3
								c-1.1,1.1-2.4,2.1-3.8,3.1c-1.5,1-3,1.8-4.1,2.2c-0.9,0.3-1.6,1.4-2.2,2.4c-0.7,1-1.3,2-2.3,2.4c-0.3,0.1-0.7,0.2-1,0.3
								c-1.1,0.4-2,0.7-2.9,1.4c-0.8,0.6-1.8,0.9-3.2,1c-0.9,0-1.7-0.2-2.5-0.7s-1.3-0.9-1.7-1.3c-0.4-0.5-0.7-1-1.5-2.3
								c-0.5-0.9-0.8-1.5-2.5-2.2c-1.2-0.5-2.1-0.7-3-0.9c-0.8-0.2-1.6-0.4-2.6-0.7c-0.4-0.2-0.8-0.2-1.2-0.2s-0.8,0-1.1,0.1
								c-0.9,0.2-1.9,0.6-2.9,1.1s-2,0.8-2.9,1c-0.8,0.2-1.5,0.4-1.7,0.7c-0.2,0.4,0.2,1,0.5,1.5c0.2,0.4,0.5,0.8,0.6,1.1
								c0.1,0.5,0.4,1.7,0.9,2.7c0.3,0.6,0.7,1.2,1.4,1.7c0.7,0.6,0.9,1.4,0.8,2.1c-0.1,0.7-0.5,1.4-1.3,2c-0.8,0.5-2.8,0.5-4.8,0.5
								c-1.3,0-2.6,0-3.5,0.1l-1.1,0.2c-1.9,0.3-4.1,0.7-7.7,0.6c-1.5,0-3,0.1-4.4,0.3c-1.6,0.3-3,0.7-4.1,1.1
								c-1.7,0.8-7.2,5.7-9.7,8l-0.9,0.8c-0.7,0.6-1,1.1-1.1,1.5s0,0.7,0.2,0.9c0.3,0.3,0.7,0.7,1.2,1.1c0.5,0.4,1.1,0.9,1.8,1.3
								c0.6,0.4,0.9,0.5,2,0.3c0.5-0.2,1.4-0.6,2.5-1s2.3-0.9,3.2-1.3c0.3-0.1,0.6-0.3,0.9-0.3c0.4-0.1,0.7-0.1,1.1-0.1
								c0.4,0,0.7,0.1,1.1,0.2c0.7,0.2,1.2,0.5,2.1,1.8c0.8,1.8,3.8,8.6,2.7,10.5c-0.8,1.4-1.9,2.1-3.1,2.9
								c-0.6,0.4-1.2,0.8-1.8,1.3c-1,0.8-0.7,1.4-0.4,2c0.2,0.5,0.5,1,0.5,1.6c0,0.9-0.3,1.6-1.2,2.2c-0.8,0.5-2.1,0.8-4,1.1
								c-1.1,0.2-1.9,0.2-2.6,0.2c-1,0-1.7-0.2-2.5-0.4c-0.6-0.1-1.2-0.3-2-0.4c-0.5-0.1-0.9-0.1-1.3-0.1c-0.7,0-1.2,0.1-1.7,0.2
								c-0.8,0.3-1.5,0.9-2.2,1.9s-0.1,2.2,0.5,3.3s1.1,2.2,0.8,3.4c-0.6,2.3-3.7,4.8-7,7.3c-1.5,1.2-1.4,2.7-1.3,3.8
								c0,0.9,0.1,1.6-0.6,2c-0.7,0.5-1.3,0.7-2.3,1c-0.7,0.2-1.5,0.5-2.6,1s-1.9,1.5-2.7,2.5c-0.8,1.1-1.5,2-3.2,2.1
								c-0.8,0-1.8-0.2-2.8-0.5c-1.3-0.4-2.8-1-4.5-1.7c-0.7,0-1.5,0.5-2.4,1.1c-0.6,0.4-1.3,0.8-2.2,1.3c-1.3,0.6-2.4,1.5-3.4,2.4
								c-1,1-1.8,2-2.6,2.9c-0.7,0.9-1.3,1.4-1.9,1.9c-0.6,0.6-1.2,1-1.7,2s0.1,2.1,0.7,3.3c0.4,0.8,0.8,1.5,1,2.3s-0.2,1.8-0.7,2.7
								c-0.7,1.2-1.7,2.3-2.3,3"/>
							<line class="st1" x1="732" y1="609.2" x2="731.1" y2="609.5"/>
						</g>
					</g>
					<g>
						<g>
							<path class="st1" d="M834.2,747l-1.3,0.6c0,0.3-0.3,0.5-0.6,0.7l0,0"/>
							<path class="st19" d="M831.2,750.5c0.2,0.3,0.5,0.6,0.8,1c0.4,0.4,0.8,0.8,1.4,1.5c0.6,0.7,0.7,1.1,0.6,1.3
								c-0.1,0.1-0.5,0.2-1,0.3c-1.8-0.1-2.2-0.1-2.6-0.1c-0.9,0-1.8,0.2-2.5,0.8c-0.3,0.3-1.1,0.4-2,0.4s-2-0.1-2.9-0.2
								c-0.8-0.1-1.4-0.1-1.9-0.1c-0.9,0-2,0-3,0.2c-1.1,0.2-2,0.6-2.4,1.4c-0.5,0.9-0.4,1.3-0.2,2.3c0,0.2,0.1,0.4,0.2,0.7"/>
							<path class="st1" d="M815.9,761.4c0,0.5,0,0.8,0,1c-0.4,0-0.7,0-1,0.1"/>
							<path class="st20" d="M811.9,763c-0.2,0.2-0.4,0.3-0.5,0.6c-0.1,0.2-0.3,0.5-0.4,0.8c-0.3,0.7-0.7,1.4-1.5,2.2
								c-0.5,0.5-0.9,0.7-1.4,0.8c-0.8,0-1.1,0-1.4-0.1c-0.7-0.2-1.5-0.5-2-0.8c-0.4-0.7-0.2-1,0-1.3c0.3-0.5,0.6-1,0.7-1.8
								c0.1-0.6,0-1.1-0.1-1.7c-0.1-0.6-0.2-1.1,0-1.3c0.2-0.3,0.5-0.5,0.8-0.5c0.3-0.1,0.8-0.1,1.5-0.1c2.4,0,3.2-0.4,3.7-0.9
								s0.7-1.1,0.7-1.6c-0.1-1.3-2.7-1.6-4.7-1.8c-0.7-0.1-1.2-0.1-1.6-0.2c-0.9-1-1.3-1.7-2.7-2.1c-1.1-0.4-1.8-0.4-2.5-0.4
								c-0.6,0-1.2,0-2.2-0.5c-0.5-0.2-1-0.4-1.4-0.6c-1.6-0.6-3.3-1.2-3.9-2.2c-0.5-0.7-0.9-1.6-1.2-2.5s-0.5-1.7-0.6-2.6
								c-0.1-1-0.3-1.8-0.6-2.4c-0.4-0.8-1.1-1.2-2.1-1.4c-1.6,0-3,0.1-4.3,0.3c-1.5,0.3-2.9,0.6-3.4,1.1c-0.5,0.4-0.8,1.2-0.8,2.1
								c0,0.7,0.2,1.5,0.8,2c0.4,0.3,0.7,1.1,1,1.8c0.3,0.8,0.4,1.7,0.3,2c-0.1,0.2-0.4,0.4-0.9,0.5c-0.3,0.1-0.6,0.1-1,0.1
								s-0.9,0-1.3-0.1c-1.1-0.2-2.4-0.7-3.6-1.3c-1.1-0.5-2.1-1.2-2.7-1.8c-0.8-0.8-1.6-1.3-2.5-1.6c-0.9-0.4-1.8-0.6-2.6-0.8
								c-0.9-0.2-2.1-0.2-3.3-0.3c-0.5,0-1,0-1.3,0"/>
							<line class="st1" x1="761.2" y1="744.7" x2="760.3" y2="745"/>
						</g>
					</g>
				</g>
				<g>
					<g>
						<g>
							<path class="st1" d="M549.9,645.5c0.4-0.1,0.7-0.3,0.9-0.5"/>
							<path class="st21" d="M552.3,642.6c0.2,0,0.3-0.1,0.5-0.1c1.3,0,2,0.4,2.8,0.8c1.1,0.6,2.2,1.2,4,1.2c1.5,0,3.1-0.3,4.6-0.7
								c1.4-0.3,2.8-0.7,4.1-0.7c0.3,0,0.6,0,0.9,0.1c1.2,0.2,1.8,0.6,2.3,1c0.7,0.6,1.5,1.1,3.3,1.3c0.7,0.1,1.3,0.1,1.8,0.1
								c0.3,0,0.7,0,1,0c2,0,3,0.1,3.8,0.8c1.1,0.7,2.2,0.9,3.4,1c0.6,0,1.2,0,1.8-0.1c1.8-0.2,3.5-0.8,4.5-1.4
								c1.9-1.6,0.2-5.1-1.3-8.2c-0.3-0.6-0.6-1.3-0.9-1.8c-0.7-1.5-1.2-2.7-1.2-3.6c0-0.8,0.4-1.3,1.4-1.6c0.4-0.2,0.8-0.2,1.2-0.2
								c0.8,0,1.7,0.3,2.7,0.7c0.8,0.3,1.8,0.7,3.1,1.1c1.5,0.3,2.2,0.4,2.8,0.4c0.9,0,1.6-0.1,2.2-0.4c1.1-0.4,1.9-1.2,2.3-2.3
								c0.5-1.6,0.1-2.7-0.4-3.7c-0.4-1-0.8-1.8,0-2.3c2.2-1.4,3.7-2.3,6.4-2.5c2-0.1,3.2-0.9,4.7-1.7c1.1-0.6,2.2-1.3,3.7-1.6
								c1.3-0.3,3-0.4,4.6-0.5c2.7-0.2,5.5-0.3,7.5-1.4c1.1-0.6,1.7-1.1,2.3-1.5c0.7-0.6,1.2-0.9,2.3-0.9c1.5,0.1,1.9,0.2,2.3,0.2
								c2,0.3,4,0.5,5.9,0.5c0.8,0,1.6,0,2.5-0.1c1.8-0.2,3.7-0.7,5.3-1.6c1.3-0.8,2.2-1.8,2.7-3.3c0.2-0.8,0.4-1.7,0.5-2.4
								c0.2-1.6,0.4-2.8,2.1-3.2c1.6-0.4,3-0.4,4.7-0.4c1.2,0,2.6,0,4.4-0.1c2.3-0.2,3.2-0.8,4.2-1.3c0.8-0.5,1.6-1,3.6-1.1
								c2.8-0.1,3.3-0.6,4.1-1.2c0.4-0.3,0.9-0.7,2.2-1.1c1.3-0.4,2.3-0.5,3.2-0.5c1.6-0.1,2.8-0.2,4-1.6c1.2-1.3,0.4-2.5-0.4-3.6
								c-0.5-0.6-0.9-1.2-0.5-1.6c0.7-0.6,1.2-1,1.8-1.3s1.3-0.5,2.6-0.9c1.4-0.5,2.5-1.1,3.2-2s0.9-2,0.7-3.5
								c-0.2-1.1,0-2.2,0.3-3.1c0.3-1,0.9-1.8,1.4-2.1c0.5-0.2,1.1-0.4,1.9-0.3c1.5,0.1,2.5,0.4,3.2,1c0.7,0.8,0.5,1.1,0.3,1.5
								c-0.4,0.7-0.8,1.5,0,3c0.9,1.7,2,2,3.3,2.5c0.7,0.2,1.5,0.5,2.3,1.2c0.8,0.6,0.7,0.8,0.6,1c-0.2,0.6-0.4,1,1.8,1.9
								c1.5,0.6,2.8,0.7,4,0.8c1.1,0.1,2,0.1,2.5,0.8s0.2,1.6-0.2,2.6c-0.4,1.2-0.8,2.3,0,3.4c1,1.6,1.3,1.8,2.7,2.8
								c0.3,0.2,0.7,0.5,1.2,0.9c1.4,1,1.8,2,2.3,3.1c0.4,0.8,0.7,1.5,1.4,2.3c0.8,0.9,1.5,1.1,2.3,1.1c0.3,0,0.7,0,1.1-0.1
								c0.3,0,0.6-0.1,0.9-0.1c0.3,0,0.7,0,1.1,0.2c0.3,0.1,0.6,0.2,0.9,0.4"/>
							<path class="st1" d="M730.2,609c0.3,0.2,0.6,0.3,0.9,0.5c-0.1,0.3-0.3,0.6-0.4,0.9"/>
							<path class="st22" d="M730.2,613.3c0,0.3,0,0.6,0,0.9c0.1,1.9,1.2,3.4,2.3,4.8c0.5,0.7,1,1.3,1.2,1.9
								c0.4,0.8,0.4,1.6,0.1,2.3c-0.3,0.8-0.9,1.5-1.5,2.2c-0.2,0.2-0.3,0.4-0.5,0.6c-0.7,0.9-1.4,1.7-2.9,1.7
								c-0.4,0-0.8-0.1-1.3-0.2c-1.1-0.3-1.9-0.5-2.5-0.7c-0.8-0.3-1.4-0.5-1.9-0.5c-0.6,0-1.2,0.2-2,0.7c-1.1,0.7-2.2,1.6-3,2.6
								c-0.7,0.9-1.2,1.9-1.3,2.9c-0.1,0.7,0.2,1.7,0.5,2.6c0.5,1.7,1.2,3.7-0.1,4.8c-2.7,2.2-3.2,2.6-2.4,4.5
								c0.6,1.4,2.2,1.7,3.8,1.9c0.7,0.1,1.3,0.2,1.8,0.4c1,0.4,2,1.6,3,2.9c0.4,0.5,0.8,1,1.2,1.5c0.8,0.9,1.4,1.8,2,2.7
								s1.2,1.8,1.9,2.5c0.8,0.8,1.7,2,2,3.1c0.2,0.6,0.1,1.1-0.4,1.5c-0.7,0.4-1.7,0.4-2.7,0.4c-2.7,0-3.8,0-4.8,0.4
								c-1.6,0.6-1.6,1.6-1.6,2.6c0,0.5,0,1-0.4,1.2s-0.9,0.3-1.4,0.3c-1.3-0.1-1.7-0.1-2.1-0.1c-0.3,0-0.7,0-1.1,0.1
								c-1,0.1-1.8,0.4-2.6,0.8c-0.7,0.4-1.5,1-2.5,1.7c-0.9,0.7-1.6,1-2.2,1.3c-0.8,0.4-1.4,0.8-2.1,1.5c-0.8,1,0.1,2.4,0.9,3.7
								c0.4,0.7,0.8,1.3,0.8,1.6c0,0.2,0,0.5,0,0.7c-0.1,0.3-0.2,0.7-0.4,0.9s-0.5,0.3-0.8,0.3c-0.8-0.1-1.3-0.1-1.8-0.1
								c-0.9,0-1.8,0.1-2.6,0.4c-1.1,0.3-2,0.9-2.5,1.8c-0.3,0.5-0.5,0.9-0.7,1.4c-0.4,1-0.8,1.8-1.9,2.1c-1.1,0.3-2,0.5-2.7,0.9
								c-0.8,0.4-1.3,1-1.2,1.8c0.2,0.8,2,1.8,3.9,2.7c1.3,0.6,2.5,1.3,3,1.7c0.5,0.5,0.8,1.2,1,2c0.3,0.9,0.6,1.7,1.4,2.2
								c0.6,0.4,1.5,0.7,2.7,0.9c0.8,0.1,1.7,0.2,2.9,0.2c0.7,0,1.4,0,2.2,0c3.2-0.2,4.2-0.9,5.3-1.7c0.5-0.3,0.9-0.7,1.6-1
								c1.2-0.4,3-0.5,5-0.6c1.7-0.1,3.6-0.2,5.5-0.5c1.1-0.2,2.1-0.4,3-0.6c1.7-0.4,3.2-0.7,4.8-0.7c0.6,0,1.2,0.1,1.9,0.2
								c1.8,0.4,3.9,0.9,5.9,1.6c1.5,0.5,2.9,1.2,4,1.9c1,0.7,1.9,1.7,2.7,2.8c1,1.5,1.8,3.2,2.2,4.3c0.4,1.3,0.4,3.1,0.4,4.8
								c0,0.7,0,1.4,0,2c0.1,1.9,0.9,2.5,1.8,3.2c0.3,0.2,0.7,0.5,1,0.9c0.8,0.8,0.7,1.2,0.7,2c0,0.3-0.1,0.8,0,1.3
								c0,1.1,0.5,1.7,1,2.3c0.4,0.5,0.8,1,0.9,1.8c0.1,1.1,0.7,2,1.8,2.6c1,0.5,2.4,0.8,4.1,0.8c1,0,1.4,0.1,1.7,0.2
								c0.5,1,0.4,1.5,0.1,1.8c-0.2,0.4-0.5,0.5-0.9,0.6c-0.6,0.2-1.3,0.5-2.3,1.3c-0.7,0.5-1,1-1.3,1.3c-0.4,0.5-0.6,0.7-1.9,0.7
								c-1.4,0-2.6,0.2-3.5,0.6c-1,0.4-1.7,1-2.1,1.8c-0.5,1,0.1,2.2,0.6,3.5c0.4,0.9,0.8,1.9,0.9,2.7c0.1,1.1,0.5,2.1,1,2.8
								c0.5,0.8,1.2,1.4,1.8,2s1.1,1.2,1.3,1.9c0.2,0.6,0.3,1.2,0.2,1.9c-0.3,1.2,0.3,2.3,0.9,3.5c0.3,0.6,0.6,1.2,0.8,1.8
								c0.6,1.7,1.3,3.3,2,4.7l0.4,0.9c0.4,0.9,0.2,1.4,0.1,2c-0.1,0.5-0.3,1-0.2,1.7c0.2,1.1,1.4,1.4,2.6,1.6
								c0.6,0.1,1.3,0.3,1.3,0.5s0.1,0.6,0.1,1c0.3,2.1,1,6.3-0.2,7.8c-1.6,2-1.8,2.2-2.9,4.2c-0.8,1.5,0.2,2.1,1.2,2.8
								c0.5,0.3,1.1,0.7,1.1,1.2c0,0.7-0.5,1.4-1.3,2c-1,0.8-2.5,1.5-4,2c-2.6,0.9-3.8,2.4-4.8,3.7c-0.3,0.3-0.5,0.7-0.8,1
								c-0.7,0.8-0.8,2.6-0.8,4.6s-0.1,4.2-0.8,5.8c-0.7,1.7-1.1,2.8-1.7,3.7c-0.5,0.9-1.2,1.5-2.1,2.2c-1,0.7-1.8,1.9-2.4,3.2
								c-0.8,1.8-1.3,3.8-1.4,4.9c-0.1,0.9-0.4,1.8-1,2.6c-0.5,0.6-1.2,1.1-2.1,1.3c-0.4,0.1-0.9,0.2-1.6,0.3"/>
							<path class="st1" d="M741.7,818.2c-0.3,0-0.7,0.1-1,0.1"/>
						</g>
					</g>
					<g>
						<g>
							<path class="st1" d="M651.1,792.9c-0.3-0.2-0.5-0.4-0.8-0.6"/>
							<path class="st23" d="M647.9,790.4c-0.8-0.7-1.6-1.3-2-1.6c-0.8-0.7-1.4-1.4-1.7-2.2s-0.4-1.5-0.1-2.1c0.2-0.4,1-0.9,1.8-1.4
								c1.5-0.9,3.2-1.8,3.2-3.3c0-1,0.3-1.9,0.9-2.7c0.6-0.8,1.5-1.6,2.4-2.4c1-0.8,1.5-1.8,1.7-2.8c0.2-1.3-0.1-2.6-0.6-3.3
								c-0.8-1-3.1-1.5-5.2-2c-0.6-0.1-1.2-0.2-1.7-0.4c-1.2-0.3-1.6-0.9-2.2-1.6c-0.4-0.5-0.8-1-1.4-1.5c-0.8-0.7-1.8-1.6-2.6-2.5
								c-0.8-0.8-1.3-1.7-1.4-2.3c0-0.4,1.3-1,2.8-1.5c0.4-0.1,0.7-0.2,1-0.3c1.4-0.5,2.7-0.9,3.2-1.4c0.8-0.8,0-2.3-1-3.9
								c-0.5-0.9-1.1-1.9-1.5-2.8c-0.4-1-0.5-1.8-0.6-2.5c-0.1-1.2-0.2-2-1.5-2.5c-0.4-0.1-0.7-0.2-1.1-0.2c-0.8,0-1.5,0.2-2.3,0.5
								c-0.6,0.2-1.1,0.3-1.6,0.4c-0.7,0-1.7-0.3-2.8-0.8c-1.2-0.5-2.3-1.1-3.2-1.8c-1-0.8-2.1-1.4-3.4-1.7c-1.2-0.4-2.6-0.6-4-0.7
								c-2.2-0.2-3.7-0.9-5.9-2c-0.4-0.2-0.8-0.4-1.3-0.6c-2.5-1.2-5-1.3-7.3-1.3c-0.4,0-0.8,0-1.1,0s-0.5,0-1.1,0
								c-2,0-3.7,0.9-5.5,1.8c-1.1,0.6-2.3,1.2-3.7,1.7c-1.6,0.5-3,1.1-4.5,1.7c-1.8,0.7-3.7,1.4-6,2.1c-3.4,1.1-5.4,1.2-8.4,1.2
								h-1.8c-2.3,0-3.6,0.5-5,1c-1.2,0.4-2.4,0.8-4.4,0.9c-1.2,0-2.5,0.1-3.9,0.1c-1.1,0-2.2,0-3.3,0c-2.8-0.1-5.5-0.2-7.4-0.4
								c-1.1-0.1-2.9-0.2-4.8-0.3"/>
							<path class="st1" d="M546.2,744.8c-0.3,0-0.7,0-1-0.1"/>
						</g>
					</g>
				</g>
				<g>
					<g>
						<g>
							<path class="st1" d="M884.5,980.8c0.2-0.3,0.4-0.5,0.7-0.7"/>
							<path class="st24" d="M887.7,978.6c0.2-0.1,0.3-0.2,0.5-0.3c0.9-0.6,1.8-1.2,3.1-1.6c1-0.3,2.5-0.5,3.9-0.6
								c1.5-0.1,2.9-0.1,3.9-0.1c2.1,0,4.4-2,6.2-3.6c2.6-2.2,3.7-3.2,5.5-3.2c1.5,0,2.1,0.3,3.1,0.6c0.8,0.3,1.8,0.6,3.3,1
								c0.8,0.2,1.4,0.3,2,0.3c1.4,0,2.4-0.5,3.5-1c0.9-0.4,1.9-0.9,3.3-1.1c0.8-0.1,1.5-0.2,2.1-0.2c1,0,1.7,0.1,2.4,0.2
								c0.8,0.1,1.8,0.3,3,0.3c2,0,3.2-0.4,4.2-1c1.3-0.8,2.1-1.9,2.3-3s0-2-0.2-3.2c-0.2-0.7-0.3-1.5-0.5-2.4
								c-0.2-1.6-1.7-2.1-3-2.6c-0.8-0.3-1.5-0.5-1.4-1.1c0.2-0.9,1.2-1.3,2.2-1.8s1.9-0.9,2.5-1.8c0.9-1.2,0-2.1-1.1-3.1
								c-0.7-0.6-1.3-1.3-1.4-2.1c-0.1-1,0.2-2.1,0.5-3.2c0.3-1.1,0.6-2.2,0.6-3.3c0-1.3-1-2-1.8-2.7c-0.7-0.5-1.4-1-1.1-1.8
								c0.4-1.2,1.5-2.3,2.5-3.3c0.6-0.6,1.1-1.1,1.6-1.7c0.5-0.7,1-1.8,1.3-2.9c0.4-1.3,0.6-2.7,0.6-3.6c0-1.8,0.1-3.3-0.7-5.3
								c-0.4-1-1.2-2.4-2-4c-1.1-2-2.3-4.1-2.6-5.4c-0.2-0.8-0.4-1.9-0.6-3c-0.4-2.2-0.9-4.8-1.7-6.7c-0.7-1.7-2.8-4.2-4.7-6.4
								c-1.5-1.8-2.8-3.4-3.2-4.2s-0.3-1.8,0.2-2.5c0.4-0.7,1.2-1.3,2.4-1.6c2.2-0.6,2.5-2.2,2.6-3.8c0.1-0.7,0.2-1.4,0.5-1.8
								c0.5-0.6,1.2-1.1,1.9-1.5c0.8-0.4,1.7-0.6,2.6-0.6c0.6,0,1.2,0,1.8,0c1.1,0,2.1,0,3.3,0c2.8,0,4.5-1.1,6.2-2.1
								c0.6-0.4,1.2-0.8,1.8-1.1c1-0.6,1.7-1.1,2.2-1.6c0.6-0.5,1-1,1.9-1.1c2.9-0.1,3.5-0.2,4.4-0.7c1-0.5,1.4-1.6,1.6-2.8
								c0.2-1.1,0.2-2.2,0.1-2.9c0-0.6-0.3-1.1-0.5-1.6c-0.3-0.7-0.7-1.5-0.3-2.3c0.6-1.5-0.2-2.2-1.3-3.2c-0.3-0.3-0.7-0.6-1-1
								c-0.7-0.7-1.2-1.4-1.5-2c-0.2-0.5-0.2-1,0.1-1.4c0.4-0.5,0.8-0.8,1.3-1c2.7-0.3,3.9-0.3,4.5,0.3c0.7,1.3,1,1.9,2.2,2.3
								c1.9,0.1,2.5-0.6,3.2-1.4c0.2-0.2,0.5-0.5,0.7-0.7"/>
							<path class="st1" d="M968.3,852.8c0.3-0.2,0.6-0.4,0.9-0.5c0.3,0.3,0.5,0.5,0.6,0.8"/>
							<path class="st25" d="M972,854.8c2.2,0.2,2.8-0.1,3.4-0.5c1.8-1.3,2-2.2,2-3.1c-0.1-1-0.5-2-1.2-2.6
								c-0.5-0.5-1.4-0.8-2.2-1.1c-1.1-0.4-2.4-0.8-2.5-1.6c-0.2-0.9-0.3-1.8-0.3-2.7c0-0.8,0.2-1.6,0.8-2.3
								c0.5-0.7,0.9-1.8,1.1-2.9c0.3-1.7,0.4-3.5,0.4-4.5c0-0.5-0.1-1.2-0.2-1.8c-0.2-1.3-0.5-2.7,0.1-3.3c0.7-0.7,1-1.9,0.9-3.1
								c-0.1-1.1-0.6-2.1-1.5-2.7c-1-0.6-3.5-2.5-5.5-4.3c-1.2-1.1-2.3-2.2-2.6-2.9c-0.5-1-1.3-1.9-2.2-2.5c-1-0.7-2.2-1.1-3.4-1.2
								c-2.4-0.2-3.3-0.2-3.5-0.6c-0.1-1.9-0.1-2.8-0.9-3.5c-0.5-0.4-1-0.7-1.5-1c-0.6-0.3-1.2-0.7-1.3-1c-0.1-0.2,0.5-0.8,1.1-1.5
								c0.7-0.7,1.4-1.4,1.5-2.1c0-0.6,0-1.2-0.3-1.8s-1-1.1-2.2-1.5c-3.2-1-7.1-2.2-7.7-3.3c-0.4-0.7-0.8-1.5-1.1-2.4s-0.7-2-1-3.2
								c-0.1-0.5-0.3-0.9-0.4-1.2c-0.5-1.7-0.9-2.8,0-4c1.1-1.4-0.1-3-1.2-4.7c-0.5-0.7-0.9-1.3-1.3-2c-0.5-1-0.7-2-0.6-2.8
								c0-0.8,0.3-1.5,0.8-1.9c0.4-0.3,0.9-0.5,1.3-0.7c1-0.4,1.9-0.8,2.2-1.8c0.2-0.7,0.1-1.5-0.2-2.2c-0.3-0.8-0.9-1.5-1.6-2.2
								c-0.4-0.3-0.8-0.6-1.2-0.9c-0.8-0.5-1.5-1-0.9-1.6c1-1.1,0.8-1.7,0.5-2.5c-0.3-1.9-0.5-2.6-0.8-3.4c0-0.1,0-0.2-0.1-0.2"/>
							<path class="st1" d="M937.9,756c-0.2-0.3-0.3-0.7-0.4-0.9c-0.3-0.1-0.7-0.1-1-0.2"/>
							<path class="st26" d="M933.7,754.6c-0.9,0-1.2,0.2-1.4,0.5c-0.4,0.4-0.8,0.9-1.2,1.4c-0.8,1-1.7,2.1-2.8,2.6
								c-0.7,0.3-1.9,0.4-3.2,0.5c-0.7,0.1-1.5,0.1-2.1,0.1"/>
							<path class="st1" d="M921.6,759.6c-0.4,0-0.8,0-1-0.1c-0.2-0.3-0.4-0.6-0.5-0.8"/>
							<path class="st27" d="M919.4,756.1c0-0.9-0.1-2.1-0.2-3.1v-0.1"/>
							<path class="st1" d="M918.8,751.5c-0.1-0.4-0.3-0.7-0.4-0.9c-0.4,0-0.7-0.1-1-0.1"/>
							<path class="st1" d="M913.7,750.7c-0.4,0.2-0.6,0.4-0.8,0.6c-0.3-0.2-0.6-0.3-0.9-0.4"/>
							<path class="st28" d="M910.5,748.8c0-0.1,0.1-0.2,0.2-0.3c1.5-1.8,2.7-3.2,2.7-4.5c0-1.1-1-2.1-2.2-3.2
								c-0.7-0.7-1.4-1.4-1.8-2c-0.6-1.2-0.7-2-0.9-3.1c-0.1-0.4-0.2-0.8-0.3-1.3c-0.2-1-0.8-1.7-1.5-2.2c-0.9-0.7-2.1-1-3.1-1.1
								c-1.2,0-2.1,0.7-3,1.5c-0.1,0.1-0.2,0.2-0.4,0.3"/>
							<path class="st1" d="M899.2,733.6c-0.3,0.2-0.6,0.3-0.9,0.3c-0.3-0.2-0.5-0.5-0.7-0.7"/>
							<path class="st29" d="M895.1,731.8L895.1,731.8c-1.5,0-1.9,0.7-2.4,1.5c-0.3,0.5-0.6,1-1.3,1.1c-3.2-1.3-2.8-2.1-2.3-3
								c0.5-1,1-2,1-2.7c0-0.8-0.1-2.3-0.5-3.4c-0.3-0.9-0.8-1.5-1.7-1.7c-0.4-0.1-1-0.1-1.6-0.1s-1.2,0-1.8,0.1
								c-1.1,0.1-2.2,0.3-2.8,0.6c-0.7,0.3-0.9,0.8-1.2,1.3s-0.6,1-1.4,1c-1.6,0-2.1-0.8-2.6-1.8c-0.5-0.8-1.1-1.2-2-1.5
								c-4.6-0.1-5.4-0.2-6.2-0.3c-0.9-0.1-1.9-0.2-3-0.2c-1.6,0-2.8,0.3-4.3,0.7c-0.8,0.2-1.8,0.5-2.9,0.7
								c-1.7,0.3-2.7,0.8-3.2,1.4c-0.5,0.6-0.5,1.3-0.4,2.2c0.1,1.4,1,1.8,2.3,2.2c0.5,0.2,0.9,0.3,1.4,0.6c0.8,1.5,0.9,2,2.1,2.3
								c4.9,0.9,4.9,1.7,4.9,2.4c0,1.7,0.1,3.6-0.8,3.7c-2.2-0.4-2.8-0.5-3.4-0.5c-1.9,0.6-2.6,0.9-3.3,1c-0.7,0.2-1.4,0.2-2.1,0.2
								c-1,0-1.8,0.5-2.5,1.2c-0.8,0.8-1.3,2-1.5,2.7c-0.1,0.6-0.5,1.8-1.2,2.6c-0.4,0.5-0.9,0.9-1.4,0.9c-0.8,0.1-1.9,0.1-3,0.1
								c-1.6,0-3.4,0-4.5,0c-1,0-3.2,0-5.1-0.1"/>
							<path class="st1" d="M835.2,747c-0.4,0-0.7,0-1,0c-0.1-0.3-0.3-0.6-0.6-0.8"/>
							<path class="st30" d="M831.7,744c-0.5-1-0.3-1.4-0.2-1.6c1.5-1.2,2.7-2.1,2.7-3.3c0-0.8-0.3-1.3-0.6-1.8
								c-0.2-0.4-0.4-0.8-0.5-1.4c0-0.7,1-1.2,2-1.7c2-1.1,2.5-2,2.7-3c0.3-1.2,0.4-2.7,0.2-3.6c-0.1-0.7-0.4-1.2-0.7-1.6
								c-0.3-0.5-0.7-1-0.8-2.1s-0.2-1.7-0.4-2.2s-0.5-0.7-1-1.1c-1.8-0.9-2.3-1.2-2.7-1.6c-0.5-1.6-0.6-2-1-2.5s-1-0.7-1.6-1
								c-0.6-0.2-1.2-0.5-1.5-0.9c-0.3-0.5-0.5-1.3-0.7-2.2c-0.2-1-0.5-2-0.9-2.7c-0.3-0.6-0.7-2-1-3.5c-0.2-1.5-0.4-3-0.3-3.8
								c0.1-0.8,0.5-1.4,0.9-2c0.5-0.7,0.9-1.4,1.1-2.5c0.3-1.7-0.2-3.1-0.6-4.3c-0.5-1.4-1-2-1.7-2.5c-0.1-0.1-0.2-0.1-0.3-0.2"/>
							<path class="st1" d="M823.6,690.3c-0.3-0.1-0.6-0.2-1-0.3c0.2-0.3,0.3-0.6,0.4-0.9"/>
							<path class="st31" d="M824.5,686.5c0.2-0.3,0.5-0.7,0.8-1.2c0.5-0.7,0.9-1.3,1.5-1.7c0.5-0.4,1.3-0.7,2.3-0.9
								c1.2-0.2,2.5-0.4,3.7-0.4s2.1,0.1,2.8,0.3c1.3,1,1.6,1.3,2.4,1.5c1.2,0.1,1.8-0.1,2.4-0.3c0.7-0.3,1.3-0.9,1.8-1.6
								c0.4-0.6,0.9-1.2,1.6-1.6c0.7-0.4,1.6-0.7,2.8-0.8c2.1,0,3.2,0,4.4,0.1c2.6,0.1,5.3,0.3,6.6,0.5c1.4,0.1,2.5,1.2,3.7,2.4
								c1.9,1.8,3,2.4,4.3,2.7c0.6,0.1,1.2,0.2,1.9,0.2c0.8,0,1.7-0.1,2.6-0.3c1.7-0.3,3-0.8,4-1.3c1.1-0.6,1.8-1.3,1.9-2
								c0.1-0.5,0.1-1.1,0.2-1.8c0.1-1,0.2-2.1,0.4-2.9c0.2-0.8-0.1-1.7-0.5-2.7c-0.3-0.8-0.6-1.7-0.7-2.7c-0.1-1,0.2-1.8,0.8-2.4
								c0.6-0.5,1.4-0.9,2.4-0.9c1.3,0,2.4,0.1,3.5,0.2c1.2,0.1,2.4,0.2,3.5,0.2c0.9,0,1.8-0.1,2.4-0.3c1.7-0.6,2-1.7,2.3-2.9
								c0.1-0.5,0.2-0.9,0.4-1.3c0.3-0.6,0.9-1.1,1.7-1.5c0.9-0.4,2-0.8,3.2-1.1c1.4-0.4,2.3-0.8,3-1.3c0.7-0.6,1-1.3,1.4-2.4
								c0.3-1,0.5-2.9,0.6-4.6c0.1-1.6,0.2-3.1,0.4-3.6c0.8-1.7,1.7-3.3,2.6-3.5c2.1,0.2,2.5,0.5,3,0.9c0.6,0.6,1.3,1,2.2,1.2
								c4-0.2,5-0.4,6.1-0.7c1-0.3,2.2-0.8,3.5-1.4c1.4-0.6,3.3-1.7,4.9-2.6c1.5-0.9,2.8-1.8,3-2.2c0.1-0.2,0.9-1,1.7-1.9
								c1-1,2.1-2.2,2.5-2.8c0.3-0.4,0.4-0.9,0.5-1.5"/>
							<path class="st1" d="M930.9,634.3c-0.1-0.3-0.1-0.7-0.2-1c0.2-0.1,0.6-0.2,1-0.2"/>
							<path class="st32" d="M934.6,632.3c1.5-0.3,3.1-0.6,4-0.6c1.9,0.1,2.8,0,3.7-0.1s1.9-0.2,2.6-0.2c1.3,0.5,1.6,1.1,1.9,1.7
								c0.6,1.2,1.3,2.6,2.6,3.4c1.2,0.8,3.2,1.2,5.1,1.6c1.2,0.2,2.3,0.5,3.1,0.8c0.9,0.3,1.6,0.9,2.2,1.5c0.6,0.7,1,1.5,1.5,2.4
								c0.3,0.5,0.4,1.1,0.6,1.8c0.4,1.6,0.9,3.2,2.7,4.3c1.2,0.7,2.2,0.8,3.2,0.8c1.9,0,2.5,0,3.1,0.4c0.7,0.4,1.3,1.1,1.9,2
								c1,1.4,2.2,2.9,4.2,3.2c1.1,0.1,1.9,0.2,2.6,0.2c1.1,0,1.7,0,2.1,0.5c0.5,0.5,1.8,2.3,2.8,3.9c0.7,1.1,1.2,2.2,1.3,2.7
								c0,0.5,0,1.5-0.1,2.5c-0.2,2.1-0.3,4.6,0.4,5.2c0.8,0.6,3.1,0.8,5.3,0.9c0.7,0,1.5,0.1,2.1,0.2c0.8,0.1,1.8,0.5,2.7,0.8
								c1,0.4,1.9,0.8,2.6,0.8c1.8-1.1,2-1.9,2.2-2.6c0.2-0.7,0.4-1.4,0.8-1.7c1.2-0.1,2.1,0,2.9,0.2c0.8,0.1,1.5,0.2,2.1,0.2
								c1.8-0.3,2.6-0.6,3.2-1.1c0.6-0.5,1-1.2,0.8-2c-0.5-1.2-1-2.1-1.8-2.9c-0.8-0.8-1.8-1.6-3-2.5c-1.4-1-2.7-1.1-3.8-1.2
								c-0.9-0.1-1.7-0.2-2.3-0.7c-0.7-0.6-1-1.2-1.1-1.8c-0.1-0.7,0.1-1.4,0.5-2c0.2-0.3,0.9-0.4,1.8-0.4c1.4-0.1,3-0.3,4.1-1.5
								c0.6-0.7,1.8-1.1,3.2-1.4c1.1-0.2,2.2-0.3,3.3-0.3c0.7,0,1.4,0,2,0.1c1.2,0.2,2.2,0.2,3.1,0.2c2.8,0,3.5,0,4.1,0.1
								c0.8,0.1,1,0.6,1.2,1.2c0.3,0.8,0.5,1.5,1.8,1.9c2.1,0.3,2.7,0.1,3.4,0c0.6-0.2,1.3-0.3,2.2-0.3c1.1,0.1,1.7,0.4,2.2,0.8
								c0.6,0.4,1.2,0.8,2,0.8c0.4,0,1-0.1,1.6-0.4c0.9-0.4,1.9-0.7,2.7-0.7c1.3,0.2,2.2,0.7,2.8,2c0.8,1.5,0.2,2.6-0.2,3.5
								c-0.4,0.9-0.8,1.7,0,2.4s1.9,0.9,3.4,0.9c2.2,0,3.5,0.1,4.6,0.6c1,0.4,1.8,0.6,2.4,0.6c1.3,0,2-0.7,2.7-1.7
								c1.3-2,1.2-2.8,0.9-3.8c-0.1-0.4-0.2-0.9-0.2-1.5s0.5-0.9,0.9-1.1c0.7-0.3,1.3-0.6,1.3-1.5c0-0.7,0-1.3-0.3-2.1
								c-0.2-0.8-0.6-1.7-1.3-2.7c-0.7-0.9-0.7-1.6-0.8-2.4c-0.1-0.7-0.1-1.5-0.6-2.6c-0.5-1.2-0.7-2.4-0.7-3.5
								c0-0.9,0.2-1.7,0.7-2.1c0.3-0.3,0.9-0.4,1.7-0.5c1.2-0.2,2.7-0.4,3.9-1.6c0.9-0.9,1.8-1.6,2.8-2c0.8-0.4,1.7-0.6,2.7-0.6
								c1.6,0.1,3,0.3,4.1,0.7c0.9,0.3,1.5,0.8,1.4,1.5c-0.1,0.8-0.4,1.5-0.7,2.2c-0.4,0.8-0.7,1.7-0.7,2.7c0.1,1.8,2.3,2.6,4.4,3.3
								c2.2,0.8,2.3,1.3,2.3,1.8c0.4,1.6,1.1,2.5,2.1,3.1c0.8,0.5,1.9,0.9,3.3,1.1c2.5,0.1,3.3-0.4,4.4-1c0.5-0.3,1.1-0.6,1.9-0.9
								c1.7-0.2,2.4,0,3.2,0.3c1.2,0.4,2.7,0.8,4.9,0.9c3.3,0,5.2-0.8,6.9-1.5c0.9-0.4,1.7-0.7,2.6-0.9c1.5-0.1,2.2,0.3,2.8,0.7
								c0.7,0.4,1.4,0.8,2.3,0.8c1.4-0.1,3.1-0.4,4.7-0.8c1.7-0.5,3.2-1.2,3.7-2.2c0.3-0.8,0.8-1.4,1.4-1.8c2.3-0.3,2.8,0,3.2,0.5
								c0.5,0.6,0.8,1.3,0.9,2.2c0.2,1,0.7,2.1,1.2,3.2c0.4,0.9,0.9,1.7,0.9,2.2c0.1,0.8,0.8,1.5,2,2.2c1.3,0.8,3.2,1.6,4.8,2.2
								c1.2,0.5,2.7,0.7,4.2,0.9"/>
							<path class="st1" d="M1137.9,658.8c0.3,0.1,0.7,0.1,1,0.2c0,0.3,0.2,0.6,0.5,0.8"/>
							<path class="st1" d="M1141.8,661.1c0.4,0.2,0.7,0.4,0.8,0.6"/>
						</g>
					</g>
				</g>
			</g>
			<g class="st0">
				<g>
					<g>
						<g>
							<path class="st1" d="M1012.8,180.4c0.2,0.3,0.3,0.6,0.4,0.9"/>
							<path class="st1" d="M834.4,186.6c-0.3,0-0.7,0-1,0"/>
						</g>
					</g>
				</g>
			</g>
		</g>
		<g>
			<g>
				<path class="st1" d="M1121.2,645.1c0.1-0.2,0.2-0.5,0.3-0.9"/>
				<path class="st33" d="M1122.5,641.3c0.2-0.6,0.3-1.1,0.3-1.5c0-0.7-0.1-1.4-0.3-2.2c-0.2-1-0.4-2-0.2-2.9
					c0.1-0.6,0.9-1.2,1.9-1.7c1.1-0.5,2.6-1,4-1.4c1-0.3,1.9-0.3,2.6-0.3c2.3,0,3.1,0,3.8-0.4c0.2-0.1,0.5-0.2,0.8-0.4
					c1.3-0.7,2.6-1.3,3.9-1.3c1,0,2.2,0,3.2-0.4c1.1-0.4,1.9-1.1,2-2.5c0.1-1.1,0.4-2.1,0.7-3c0.3-0.9,0.8-1.6,1.5-2.1
					c0.5-0.4,1.8-0.4,3.1-0.4c1.6,0,3.4,0,4.6-0.8c0.5-0.3,1.1-0.6,1.8-1c2.2-1.2,4.7-2.4,3.7-3.9c-0.6-1-1.6-1.3-2.7-1.6
					c-0.7-0.2-1.4-0.4-1.9-0.9c-0.4-0.4-0.3-0.8-0.2-1.2c0.2-0.6,0.4-1.4-0.1-2.6c-0.2-0.4-0.3-0.7-0.4-0.9
					c-0.2-0.4-0.3-0.7-0.3-0.8s0.2-0.2,0.7-0.6c1.5-1.1,0.8-2.5,0.1-3.9c-0.4-0.8-0.8-1.6-0.8-2.2c0-0.9,1.3-0.9,2.8-0.9
					c0.6,0,1.2,0,1.8-0.1c2.2-0.2,3.3-1.1,4.6-2.1c0.3-0.2,0.7-0.5,1.1-0.8c0.4-0.2,0.9-0.3,1.6-0.3c0.5,0,1,0,1.5,0.1
					c0.5,0,1,0.1,1.5,0.1c1,0,1.8-0.2,2.2-0.9c0.4-0.7,1.5-2,3.1-3.4c1.2-1,2.7-2,4.2-2.6c1.1-0.5,2.3-0.6,3.5-0.6
					c1.1,0,2.2,0.2,3.2,0.3s1.9,0.2,2.7,0.2c0.5,0,1,0,1.5-0.1c1.4-0.3,2.7-0.9,3.7-1.6c1.1-0.8,1.8-1.7,1.7-2.4
					c-0.1-1-1.6-2.5-3.6-4.6c-0.5-0.6-1.1-1.2-1.7-1.7c-1.4-1.5-2.4-1.8-3.4-1.8c-2,0-2.6,0-3.2-0.3c-1.6-0.6-1.9-1.8-2.2-3
					c-0.2-0.7-0.3-1.4-0.8-2c-0.8-1.1-2.8-2.1-4.7-3.1c-0.9-0.5-1.8-1-2.5-1.4c-1.3-0.8-2.3-1-3.5-1.2c-0.8-0.1-1.8-0.3-3.2-0.8
					c-1.6-0.5-2.6-1.3-3.4-1.8c-0.9-0.6-1.5-1.1-2.6-1.1c-1.3,0.1-1.8,0.6-2.3,1.1c-0.3,0.3-0.6,0.7-1.2,0.8"/>
				<path class="st1" d="M1155.3,565.3c-0.2,0.2,0,0.3-0.8,0"/>
			</g>
		</g>
		<g>
			<g>
				<line class="st1" x1="1085.9" y1="309.3" x2="1084.9" y2="309.5"/>
				<line class="st1" x1="1084.2" y1="309.6" x2="1083.2" y2="309.7"/>
			</g>
		</g>
	</g>
</g>
<g id="Ebene_3_00000148635226767303061050000005876005171364057019_">
	<text transform="matrix(1 0 0 1 1256.8175 449.9987)" class="st34 st35 st36">Brandenburg</text>
	<text transform="matrix(1 0 0 1 1386.1177 311.8999)" class="st0"><tspan x="0" y="0" class="st37 st35 st38 st39">POLSKA</tspan><tspan x="6.3" y="15" class="st37 st35 st36 st40">(POLEN)</tspan></text>
	<text transform="matrix(1 0 0 1 1089.4402 222.6002)" class="st34 st35 st36">Mecklenburg-Vorpommern</text>
	<text transform="matrix(1 0 0 1 1224.4983 570.4001)" class="st34 st35 st36">Sachsen</text>
	<text transform="matrix(1 0 0 1 1044.5627 461.2805)" class="st34 st35 st36">Sachsen-Anhalt</text>
	<text transform="matrix(1 0 0 1 817.1103 347.267)" class="st34 st35 st36">Niedersachsen</text>
	<text transform="matrix(1 0 0 1 988.5699 601.3982)" class="st34 st35 st36">Thringen</text>
	<text transform="matrix(1 0 0 1 794.4549 621.8753)" class="st34 st35 st36">Hessen</text>
	<text transform="matrix(1 0 0 1 600.9634 508.9748)" class="st34 st35 st36">Nordrhein-Westfalen</text>
	<text transform="matrix(1 0 0 1 852.8958 162.2787)" class="st34 st35 st36">Schleswig-Holstein</text>
	<text transform="matrix(1 0 0 1 569.3865 701.0943)" class="st34 st35 st36">Rheinland-Pfalz</text>
	<text transform="matrix(1 0 0 1 579.2902 773.7056)" class="st34 st35 st36">Sarrland</text>
	<text transform="matrix(1 0 0 1 787.3002 854.8612)" class="st34 st35 st36">Baden-Wrttemberg</text>
	<text transform="matrix(1 0 0 1 1059.8713 811.426)" class="st34 st35 st36">Bayern</text>
</g>
<path id="HH" class="st41" d="M896,234.2c0.4,0.1,0.7,0.3,0.9,0.5l1.5,2.5c0.2,0.3,0.3,0.6,0.5,0.9c0.6,1.4,1.2,3.2,1.6,4.4
	c0.4,1.2,1.6,3.8,3.1,5.8c1.1,1.6,2.4,3,3.6,3.5c1.3,0.6,2.7,0.8,4,0.9c1.2,0.1,2.6,0.3,4,0.8c1.4,0.6,2.9,0.9,4.4,1.2
	c1.3,0.2,2.5,0.3,3.5,0.4c2.3-0.1,3.2-0.8,4.3-1.7c1-0.9,2.2-1.8,3.5-1.7c1.7,0.1,3,1.3,4.3,2.4c0.9,0.8,1.7,1.5,2.7,2
	c1.4,0.7,3.5,1.5,5.4,1.9c0.5,0.1,1.1,0.1,1.6,0.2c1,0,1.9-0.1,2.7-0.5c0.9-0.4,1.7-1,2.4-1.6c1.3-1,2.6-2,4-1.9
	c0.3,0,0.6-0.1,0.8-0.1l1.3-0.7c0.3-0.1,0.6-0.2,1-0.1"/>
<path id="BRE" class="st42" d="M819,294.1C819,294.1,818.9,294.1,819,294.1c-0.5-0.4-1-0.6-1-1.2c-0.1-1,0-1.4,0.1-1.8
	s0.2-0.7,0.2-1.4c0-0.9-0.4-1.6-1-2.1c-0.7-0.7-1.7-1.1-2.7-1.3c-0.3-0.1-0.6-0.1-0.9-0.1c-0.6,0-1.2,0.1-1.9,0.2s-1.5,0.2-2.3,0.2
	c-1,0-2-0.5-3-1c-0.8-0.4-1.7-0.8-2.7-1.1c-0.6-0.2-1.2-0.2-1.8-0.2c-0.3,0-0.6,0-1,0c-0.3,0-0.5,0-0.8,0c-0.9,0-1.8-0.2-2.5-0.9
	c-1-1-1.8-1.6-2.9-1.9c-1-0.3-2.2-0.5-4.1-0.7c-2.9-0.3-3.9-0.7-5.7-1.5c-0.4-0.2-0.8-0.3-1.1-0.5c-1.4-0.6-2.3-0.7-3.3-0.9
	c-0.9-0.1-1.8-0.2-3.2-0.9l-0.9-0.4c-1.8-0.8-3.6-1.6-5-1.7c-0.9,0-1.6,0.3-2.1,1c-0.1,0.2-0.2,0.3-0.2,0.5c-0.4,0.8-0.4,1.8,0,2.6
	c0.4,0.9,1.2,1.6,2.5,2.2c0.2,0.1,0.5,0.2,0.8,0.3c1.3,0.5,2.5,0.7,3.5,0.9c1.1,0.2,2.1,0.4,2.7,0.8c0.6,0.4,1.4,0.9,2,1.6
	s1.2,1.6,1.4,3c0.8,2.9,4.1,5.5,5.8,7l0.2,0.1c0.5,0.5,0.6,1.3,0.8,2.2c0.2,1.3,0.3,2.8,1.8,4c1.3,1.1,2.1,1.3,3.2,1.3
	c0.3,0,0.7,0,1.1,0c0.4,0,0.9,0,1.5,0c0.5,0,1.2,0.1,1.9,0.2c1.9,0.3,3.3,0.9,4.4,1.4c1.3,0.6,2.5,1.1,4.1,1.1c0.5,0,1,0,1.3,0
	c0.4,0,0.8,0,1.3,0c1.8,0,3.5-0.1,5.8-1.3c1.6-0.8,2.8-1.7,3.7-2.7c0.4-0.4,0.7-0.9,1-1.4"/>
<path id="SH" class="st41" d="M1014,184.2c0.4,1.5,0.6,2.7,0.3,3.2c-0.3,0.6-1.3,0.6-2.3,0.6c-1.1-0.1-1.4-0.1-1.7-0.1
	c-0.7,0-1.3,0-1.8,0.1c-1.2,0.3-2,0.9-2.9,1.6c-0.7,0.6-1.6,1.2-2.9,1.8c-1.6,0.7-2.5,1.5-3,2.2c-0.6,0.8-0.7,1.6-0.7,2.5
	c0,1.5,0.2,4.4,0.4,6.5c0.1,1.2,0,2.1-0.1,3.1c-0.2,2-0.5,4.4,0.4,6.1c0.8,1.7,2.3,1.9,3.6,2.1c0.6,0.1,1.2,0.2,1.5,0.5
	c0.2,0.3,0.4,0.5,0.5,0.8c0.8,1.2,1.7,2.6,4.5,4.1c1.8,0.9,3.2,1.2,4.5,1.4c1.1,0.2,2.1,0.4,2.8,1s1.3,1.8,1.5,3.1
	c0.3,1.5,0.2,3.2-0.1,4.9c-0.5,1.9,0.2,3.1,0.8,4.2c0.4,0.7,0.7,1.3,0.3,1.9c-0.4,0.6-1,0.8-1.7,0.9c-1.6,0-2.7-0.3-3.6-0.6
	c-0.8-0.3-1.8-0.6-3-0.6c-2.1,0.1-3.6,0.6-5,1.8c-1.7,1.4-1.6,2.4-1.5,3.5c0,0.6,0.1,1.3-0.3,2.2c-0.5,1.1-1.4,2.1-2.3,2.8
	c-1,0.7-2.1,1.2-3.2,1.4c-1.9,0.3-3,1-4.2,1.8c-0.5,0.3-1,0.7-1.6,1c-0.7,0.4-1.4,0.6-2.1,0.8c-1.2,0.3-2.5,0.7-4,1.9
	c-2.1,1.6-1.7,3.7-1.4,5.7c0.1,0.6,0.2,1.3,0.2,1.9c-0.1,1-0.6,1.7-1.3,2.1c-0.8,0.5-2,0.7-3.2,0.7c-2-0.1-4.2-0.5-6.2-1.1
	c-1.7-0.5-3.2-1.2-4.4-2c-1.3-0.9-2.7-1.8-4.2-2.7c-1.5-0.9-3.1-1.7-4.6-2.4c-0.9-0.4-1.7-0.8-2.5-1l-1.4-0.4c-0.1,0-0.1,0-0.2,0
	c-0.3-0.1-0.5-0.1-0.8-0.1c-0.1-0.3-0.2-0.6-0.3-0.9l-2-2.4c-1-0.9-2.2-1.8-3.8-2.7c-2.3-1.3-2.5-1.8-2.7-2.4
	c-0.2-0.5-0.5-1.1-1.4-2c-1.1-1.2-2-1.6-2.8-2c-0.7-0.3-1.3-0.6-1.9-1.6c-0.7-1-0.5-1.5-0.1-2.3c0.3-0.7,0.7-1.4,0.8-2.7
	c0.1-1.8-0.5-2.6-1.2-3.4c-0.4-0.5-0.8-1-0.7-1.9s0.9-1.4,1.7-1.9c1.1-0.7,2.2-1.4,2.6-3c0.5-1.8-0.3-2.8-1.2-3.8
	c-0.5-0.6-1-1.2-1.2-2c-0.3-1,0-1.3,0.3-1.6c0.4-0.4,0.8-0.9,0.8-2.1c-0.1-1.5-0.8-2.1-2.1-2.1c-1,0-2,0.3-3.3,0.6
	c-1.2,0.3-2.1,0.3-3,0.4c-1.8,0.1-3.3,0.1-4.5,1.5c-0.3,0.4-0.6,0.7-0.9,1.1c-1,1.3-1.9,2.3-3.5,2.8c-1.2,0.4-2.2,1.1-3,1.8
	s-1.7,1.3-2.7,1.6c-0.6,0.1-1.2,0.2-1.7,0.3c-1.7,0.2-3.6,0.4-6.3,1.9c-1.7,0.9-2.9,2.1-3.9,3c-1,1-1.8,1.7-2.6,1.7
	c-0.7,0-1-0.9-1.4-1.6c-0.4-0.9-0.8-1.8-1.8-2c-1.3-0.1-2.2,0.1-3,0.6c-0.9,0.5-1.8,1.2-2.6,2.2c-0.9,1.1-1.1,2.2-1.2,3.2l-0.3,1.5
	c0,0.3-0.1,0.7-0.2,1l-0.9-0.3c0,0,0,0-0.1,0l-2.8-0.9c-0.7-0.2-1.3-0.5-1.8-0.8c-1.4-0.7-3.1-1.8-4.9-3c-1.7-1.1-3.4-2.3-5.1-3.2
	c-2.9-1.6-3.7-2.7-4.7-4.1c-0.2-0.2-0.3-0.4-0.5-0.7c-1.8-2.4-7.8-10.1-9.2-12.6c-0.7-1.3-2.5-4.6-4.3-7.8s-3.8-6.4-4.7-7.5
	c-1-1.1-3.6-2.6-6.3-3.9c-2.6-1.2-5.5-2.2-7.5-2.5c-0.9-0.1-2-0.2-3.2-0.2c-1.3,0-2.7,0-4.1,0"/>
</svg>
