<?xml version="1.0" encoding="utf-8"?>
<!-- Generator: Adobe Illustrator 26.0.1, SVG Export Plug-In . SVG Version: 6.00 Build 0)  -->
<svg version="1.1" id="Ebene_1" xmlns="http://www.w3.org/2000/svg" xmlns:xlink="http://www.w3.org/1999/xlink" x="0px" y="0px"
	 viewBox="0 0 60 30" style="enable-background:new 0 0 60 30;" xml:space="preserve">
<style type="text/css">
	.st0{fill:#FFFFFF;}
</style>
<path d="M52.8,4.7H7.4C5.6,4.7,4.1,6.2,4.1,8v14.1c0,1.8,1.5,3.2,3.2,3.2h45.4c1.8,0,3.2-1.5,3.2-3.2V8C56,6.2,54.6,4.7,52.8,4.7z"
	/>
<path class="st0" d="M52.8,4.6H29.9v20.6h22.9c1.7,0,3.1-1.4,3.1-3.1V7.7C55.9,6.1,54.5,4.6,52.8,4.6z M41.5,19.5h-4v-8.9h4v1.3h-2
	v2.2h1.6v1.4h-1.6v2.7h2.1L41.5,19.5L41.5,19.5z M47.2,19.5h-1.3l-1.8-4.6v4.6h-1.7v-8.9h1.4l1.8,4.3v-4.3h1.6V19.5z"/>
<g>
	<path class="st0" d="M15.2,12.2c0-0.1-0.1-0.1-0.3-0.2c-0.1,0-0.3-0.1-0.5-0.1h-0.3v6.2h0.3c0.2,0,0.3,0,0.4,0S15,18,15.1,18
		c0.1-0.1,0.1-0.1,0.2-0.2c0-0.1,0.1-0.1,0.1-0.2s0-0.2,0-0.3c0-0.1,0-0.2,0-0.4v-3.8c0-0.2,0-0.4,0-0.5S15.3,12.3,15.2,12.2z"/>
	<path class="st0" d="M7.1,4.6C5.5,4.6,4,6.1,4,7.7v14.5c0,1.7,1.4,3.1,3.1,3.1h22.8V4.6H7.1z M17.4,16.6c0,0.5,0,1-0.1,1.3
		c-0.1,0.3-0.3,0.6-0.5,0.9c-0.2,0.2-0.5,0.4-0.9,0.5s-0.9,0.2-1.4,0.2h-2.3v-8.9h2.2c0.6,0,1.1,0.1,1.5,0.2s0.7,0.3,0.9,0.5
		s0.4,0.5,0.5,0.9c0.1,0.3,0.1,0.8,0.1,1.3V16.6z M22.6,19.5h-4v-8.9h4v1.3h-2v2.2h1.5v1.4h-1.6v2.7h2.1V19.5z"/>
</g>
</svg>
