<?xml version="1.0" encoding="utf-8"?>
<!-- Generator: Adobe Illustrator 26.0.3, SVG Export Plug-In . SVG Version: 6.00 Build 0)  -->
<svg version="1.1" id="Ebene_2_00000084498621605074960890000005036254313185139612_"
	 xmlns="http://www.w3.org/2000/svg" xmlns:xlink="http://www.w3.org/1999/xlink" x="0px" y="0px" viewBox="0 0 1920 1080"
	 style="enable-background:new 0 0 1920 1080;" xml:space="preserve">
<style type="text/css">
	.st0{fill:url(#Festland_00000140014486275259397250000001958782635054781874_);}
	.st1{fill:#D1D1D1;}
</style>
<g>
	
		<linearGradient id="Festland_00000134224598810351222250000004188182322733574541_" gradientUnits="userSpaceOnUse" x1="868.4758" y1="-905.5719" x2="1042.8721" y2="83.4798" gradientTransform="matrix(1 0 0 1 0 930)">
		<stop  offset="0" style="stop-color:#BFBFBF"/>
		<stop  offset="0.3172" style="stop-color:#E6E6E6"/>
		<stop  offset="0.7505" style="stop-color:#FCFCFC"/>
		<stop  offset="1" style="stop-color:#FFFFFF"/>
	</linearGradient>
	
		<path id="Festland_00000140705401128126114180000013668174033558088581_" style="fill:url(#Festland_00000134224598810351222250000004188182322733574541_);" d="
		M1424.1,533.8c-4-6.2-4.9-2.7-6.7-11.5c-4.2-3.6,4.1-10.6-3.7-11.6c-5.3-0.2-6.7-2.9-13.7-4.9c-2.5-0.1-3.8-0.2-5.5-2.7
		c-2.3-2.5-0.1-5,2.2-8c0.8-4.1,1-9-4.6-12c-8.5-3.7-1.3-7.7-7.5-11.6c-1.5-0.6-3.1-1.5-3.4-3.1c-2.1-6.8,13.8-10.5,10.7-19
		c-2.6-6.1,7.5-8.2,1-16.1c-5.9-3.2-4.4-2.9-5.7-20.8c-5.1-0.9-8.8-1.9-10-8.6c-0.8-4-3.6-7.9-3.4-12.1c2.7-5,10.8-5.4,7.6-13.5
		c-0.5-1.2-1.1-2.5,0.2-4.1c4.6-6.9-7.2-9-11.6-11.8c-8.5-4.6-7.5-11.5-18.2-14.6c-6.2-1.8-4.3-5.8-12.5-7.6c-1.5-0.1-3-0.3-2.3-8.7
		c0.7-0.9-1.8-6.2-1.2-8.5c2-9.6,30.7-6.6,21.2-32.2c0-1.1,1.4-2.5,3.2-4.4c2-1.9,4.5-4.4,2.4-6.9c-1.6-2.7-2.1-7.3-2.8-11
		c-0.5-4.3-3.3-12.7-4.6-16.7c-1.4-3.3-5.4-8-4.9-10.9c0.4-1.6,0.9-3.2-0.3-7.5c-0.8-0.9-1.5-2-1.8-3.5c-0.3-1.7-0.4-5.6-1.7-7.5
		c-1.3,0-2.6-0.3-4.3-1.5c-0.3-2.3,5.4-4.1,4.7-5.9c0.1-2.6-6.6,0.7-11.2,0.7c-6.3,0-9.2-1.5-15.4-4.2c-4.6-1.9-8.6-2.8-9.5-9.4
		c1.5,0.1,4.2-0.4,7.1-1.1c6.1-2,6-4.3,13.7-3.7c2.3,0.1,3.8,0.1,8.3-9.3c-4.8-3.2-10.1-8.5-15.2-13.7c-1.7-4.1-11.6-3.8-15.7-7.9
		c-1.7-1.6-4-3.8-4.5-4.9c-5.4-9.3-18.7-1.9-36,5.8c-1.9-0.5-2.5-2.9-7.7-12c-11.6-3.5-7.3-9.2-18.5-10.6c-6-4.7-6.1-0.1-11.5-12.2
		c-0.1-1.6-0.4-3.3-4.4-7.4c-1.6-0.9-2-1.4-2.7-6.2c-23.8,7.6-1.3,16.4-34.6,6.7c-0.9,0.8-1.9,1.6-20.4,12.4c-1.7,0.7-3,1.5-3.6,7.1
		c-4.8-1.2-5.9-5.9-2.9-11.4c1-0.9,2.2-2,4.3-7.3c-0.4-1.3,8.1-0.2,13.7-1.8c2.2-0.1,2.5-1.2,13.1-5.1c1.6,0.1,2.5,0.6,7.8,2.2
		c4-0.5,14.2,1.1,7.7-4.2c-9.5,0-26.8,2.6-33.9-5.3c-2.5-0.3-3.5,3.4-4.7,5.3c-0.8,1.7-1.6,3.2-5.7,7.9c-3.1,3-4.8,9.1-7.9,13
		c-3.7,3.1-3.9,1.7-9.7,5.5c-6.6,2.7-8.4,9.4-16.8,11.2c-9.7-3.7-18.9,6.5-28.4,2.8c-5.9-2.4-14.8,0.3-15.5,7
		c-0.1,1.8-0.3,2.4-4.6,8.5c-0.5,4.1-22.8-2-18.3,9.5c1.7,0.1,3.3-0.4,9.9-2.4c-0.7,4.3,0.6,9.1-4.9,11c-3.4-1.3-4.5-6.1-10.2-5.6
		c-2.1-0.8-9.9,4.8-9.7-2.6c-0.3-1.6-1.3-2.1-5.7-5c-0.7-0.9-1.3-2-10.4-2.2c-8.4,0.5-9.3,4.8-19,6.3c-0.3-0.1-0.5-0.3-1-0.7
		c-4.2-4.2-21.9-7.6-9.8-16.2c1.3-1.6,2.5-1.6,5.2-1.5c5.5,0.6,8.7-5.4,13.6-8.2c3.1-3.5,11.2-1.9,11.5-7c1.9-6.3-3.6-15.8,0.1-21.5
		c0.5-0.7,1.3-2.1-6-2.5c-3.4-0.3-5.5-1.7-10.2-1.6c-6.4,0.4-8.1,6.2-13.1,8.6c-1.3,0.6-4,1.1-10.1,0.6c-2.5-0.3-3.2-1.4-6.3-5
		c-6.3-6.6-18.8-7.6-24.3-12.2c-2-1.4-5.1-3.1-18.3,3.7c-3.8,2.1,0.1,12.3-6.8,7.1c-0.9-1.7-0.4-4.5,1.1-5.5s2.6-2.6,3.5-11.8
		c0.1-1.9-1.5-3-6.4-3.9c-1.3-0.3-2.4-0.5-6.6,0.3c-3.4,1.8-8.5,0.4-13.7,2.1c-1.9,0.4-3.1,0.7-5.3-1.9c1.9-1.6,9-3.8,11.6-5.1
		c3.9-2.1,3.2-8.8,3.7-12.6c1-5.7,0.1-8.3-6.3-12.5c1.4-0.2,3.3-0.7,3.4-3.8c-3.6-5.5,1.4-9.7-11.7-9.3c-1.6,2.5-4,1.6-7.1,0.7
		c-4.3-1.4-4.6-3.6-7.5-6.1c-2.2-1.9-8.8-3-10.7-4.5c-1.2-1-4.1-2.6-11.3-1.5c-7.2,2.2-5.1,2.4-17,3.2c-2,1.4-5.4,1.4-8.8,1.4
		c-2.7-0.1-2.9-1.3-4.8-6.9c-7.2-4.7-19.4-0.3-25.2-8.2c-1.2-0.8-2.5-1-19.1-1.5c-5.4,1.8-7.7-0.2-14.9,0.6c-1.9,6.1-1.6,11.8,4,17
		c1.1,1.3,1.2,2.5,4.1,8.4c9.1,2,10.6,8.1,13.8,18.1c4.6,0.2,5.4,4.1,7.4,7.5c3.3,2.9,8.2,5.4,8.3,11.3c-0.2,2.1-1,2.6-3,3.1
		c-3.6,1.6-9.7,7.7-16.2,5.7c-7.6-1.7-4.2-1.9-17.7,5.4h4.8l-10.1,3.5c-2.2,3.9,3.8,10.5,8.4,11.1c1.8,0.1,2.5-0.7,28.8-4.6
		c1.2,2.9-4.9,5.9-8.9,5.2c-1.5-0.1-2.9,0.9-4.3,7.6c-3,5.1-0.3,12.1,6,12.8c1.8,0.1,3-0.8,7.4-2.4c2.7,1.4,1.7,2.9,3.7,5.2
		c3.4,4.9,3.9,9.8-2.7,12.4c-4.8,0-7.5-8.6-10.1,4c2.1,3.3,0.2,3.9,2.4,7.1c5.1,9.9,23,2.5,22.9,11.6c-8.8,3.5-17.6,4.5-28.5,4.2
		c-5.9-0.9-11.3-4.1-15.2-7.8c-1.2-1.2-1.9-1.8-3.5-1.9c-5.4,0.1-11.1,7-11.5,13.3c-0.3,7-8.2,10-6.5,18.2c-1.1,2.4,16.7,24,3,21
		c1-1,1.9-2-0.9-5.4c-2.5-0.5-6.2-2-9.5-3.2c-5.5-2.5-9.8-12.2-16.7-3.8c-0.6,0.9-0.8,2.3-1.5,6.5c-0.3,1-0.1,2.1,7.6,3.9
		c3.1,5.5-4.8,23-12.8,11.3c-2.3-4.8-12.3,1.6-12.5-7.9c-1.2-6.4,10.1-2.5,10.4-6.8c0.3-1.7-0.8-3-5-5.8c-4.3-2.9-2-4.1-5.3-7.5
		c-3.3-3-3.5-3.9-4-7.7c-2.4-10.9-21.2-3.5-29.7-4.1c-7.2-0.8-16,2.2-23.2,2.2c-11.7-3.8-26.5-7-36.1,3.1c-3.7,3.8-12,4-5.8,10.6
		c1.6,2.2,2.2,3.3-6.2,6c-2.6,1.6-2.1,7.6-3.7,10.7c-2.6,6.2-1.9,10.7,7.8,13.6c4,0,6-1,10.5-0.7c7.4,1.4,2.4,5.1,3.2,11.4
		c-0.6,0.9-1.6,1.7-2.1,3.4c4.5,9.1-3,11.9-0.8,16.9c2.5,3.7,1.5,8,2,13.3c1.9,13.2-13.4,20.8-15.2,32.6c0,3.3-0.6,9-1.4,15.7
		c-0.3,3.3-0.5,5.7-8.5,4.3c-1.4,0.2-2.7,0.5-24.3-1.7c-1.3,0.8-2.1,1.8-3.6,12.1c-0.6,0.8-0.6,1.6-0.6,5.5
		c-0.1,1.6-0.2,2.7,2.9,5.1c1.1,0.9,1.8,1.4,11.2,1.9c6.5,2.8,2.2,2.9,17.4,3.6c0.9,4.2,11.3,7.6,6,14.4l0,0
		c-2,3.4-4.1,6.5-1.8,10.6c1.7,3.8-2,4.2-5.1,4.4c-1,0.8-1.7,1.9-1.8,3.1c-0.3,2.6-6.1,3-8.2,4.4c-2.3,1.7-2.7,5.3-5.8,5.9
		c-15.5,0.4-4.4,0-12.8,4.8c-3.2,1.5-5,2.7-0.3,4.7c4.3,2.3,16.2,6.4,9.3,11.7c-2.3,1.5-2.2,3.8-4.6,4.8c-3.3,2.3-6.6,2.2-10.4,1
		c-3.4,1-9.6,1.4-12.3,2c-1.4,0.8-3.7,2.1-5.1,3c-5.2,3.6-12.4-5.7-11.8,3.1c-0.9,1.6-0.9,1.5-3.9,1.7c-3.8-1.4-5-5.8-9.7-6.1
		c-8-2.2-9.4,3.5-15.3,2.1c-3.6-1.1-8.1-2.8-11.2,0c-1.9,0.9-4.5,0-6.7,0.9c0.1,1,1.3,1.6,1.4,2.8c0.6,1.5,2.4,2.6,2.1,4.5
		c-0.3,1.2-2,1.2-1.9,3.1c6.5,2.1,6.4,2.7,7.1,9.3c0.2,0.9,3.8,1.4,5.2,2c5.7,1.8,0.5,4,1,7.3c0.8,1.6,3,2.3,3.7,4.1
		c4.4,5,10.8,8.4,9,16.4c-1.4,7-1.6,5.3,0.5,11.7c0,2.3-3,3.8-4.7,5.3c-1.7,1.3-2.8,3.2-4.2,4.9c-2.6,3.3-7.5,4.9-7,9.9
		c-0.2,6,3.3,3.5,7.4,3.4c1.1,0.1,2.6,3.6,1,4.9c-3,2.1-9.2,3.4-11.9,6.3c-2.7,2.2-4.7,1.7-7.7,5.1c-1.7,2-2.3,2.6-4.2,2.7
		c-3-0.1-0.8-3.4-4.5-2.9c-0.8,0.3-0.7,1.4-0.9,2c-0.5,1.4-0.2,3,1,3.9c2.4,1.9-1.2,4.3,1.3,3.9c2.6-1.3,5.2-0.5,8.3-0.6
		c6.8-0.9,3.6,2.3,4,5.9c4.9,2.2,5.6,1.8,6.5,7.6c2.4,4.3-3.6,3.4-5.3,4.5c0.9,6.6-5,4-1.6,8.6c1.6,1.9-0.5,2.1,0.2,4.1
		c0.8,5.5,4.7,1.3,8,2.7c2.3,0.7,2.5,3.3,4.1,5c2.7,2.2,6.1,2.7,3.8,6.9c-1.4,2.9,3.7,0.7,5.5,1.2c6.5,1.1,2.9,4,0.1,6.7
		c-1,1.3-4,0.7-4.2,2.5c0.1,2.2,2.2,2.6,2.8,4.7c2.1,5.4,12.1-0.8,13.3,4.9c-0.4,1.1,2.3,3.1,3.1,3.3c4.7,2.2-0.6,6.4-2.2,8.7
		c-1.8,1.1,3.1,3.7,3.8,4.2c4.1,2.1,2.8,5.6-1.7,6.7c-2.1-0.2-5-2-6.6,0.2c-1.5,1.2-1,3.8-2.9,4.7c-2.4,1.4-8.8,0.8-10.5,3.8
		c-0.6,1,1.8,3.8,1.6,4.8c-0.9,2.1-6.4,1.7-6.8,6.4c-0.2,1.1-0.1,5.9-0.7,7.2c-0.3,1.8,1.1,2.7,1.3,4.5c-0.4,3.5,1,8.6,4.9,9.8
		c3.6,0.9,3.4,5.7,5.4,8.2c1.4,1.7,5.2,2.3,6.9,4.1c2.4,3.6,3.7,2.4,6.9,4.2c1.7,0.9,4.6,2.6,6.8,2.5c1.1,0.4,9.9,0,9.8,3
		c-0.1,1.5-0.5,2.2-0.4,3.8l0,0c0.3,2-1.7,3-0.7,4.9c2.4,4.6-6.7,4.3-8.1,7.3c0.7,6-4.3,6.6-6.8,10.9c0.1,1.6,0.7,3.4-0.7,5.1
		l-0.7,2.1c0.7,2.4,1.1,4.5,0.7,6.7c5.4-1.8,16.9,0.9,18,6.8c-0.3,2,2.6,2.2,3.8,3.2c3.1,2.8-1.5,4.8,3.1,9c1.6,1.1,3,1.9,4.7,3.5
		c2.5,2.5,2.3,5.5,5.4,7c5.1,1,3.9,2.1,2.3,5.5c1.1,1,2.6,0.9,4.9,1.2c3.3,0.1,3.5,1.3,6.6,1c0.6-0.5,0.5-1.9,0.4-3.2
		c-0.3-4,5.9-2.4,8.3-3.6c3.1,0.3,4.4,2.4,7.1,3.6c1.9,0.9,4.2,0.2,5.1,2.1c1.7,2.2-0.3,7.3,3.8,7.4c2.2-0.8,2.2-3.4,5.1-3
		c1.9,0.7,5.5,2.7,8.2,2.7c5.6-2.1,9.1,3.5,12.3-0.3c1.2-1.6,3.4-1.5,5-2.7c1.2-2.7,5.6-3.3,7.9-1.6c2.7,1.7,8.7,0.2,8.4,4.7
		c-0.2,1.2,1.5,2.8,2,3.7c1.9,3.3,6.3-0.1,9.3,2.2c2.4,1.2,1.5,3.5,3.9,4c3.7,0.3,6.3-0.5,10.6-0.3c7.4-1.6,8.8,5,15,1.6
		c6-2.3,13.3,4.9,19.7,6.5c8.9,3.6,21.4-1.3,7.9,10.1c-5.3,3.9-3,13.1-10.2,14.4c-4.1,1.7-3.3,3.6-8.7,4.4c-2.6,10.1-16,7.4-17.2,20
		c-0.9,2.3,2.3,5.9-1.2,8.2c-2.2,1.6-1.4,2.4-1.7,4.3c-0.9,3.1-4.2,3.4-4,7.1c0.7,9.8,2.5,5.5-4.4,11.9c-1.2,10.5-3.1,6.6-7.7,14
		c-1.1,2.2-0.6,3.4-2.8,5.2c-2.7,2.3-3.2,5.7-3,9c1.4,4.9,10,7.2,2.7,13.1c-3.8,2.8-3.9,8-4.9,12.2c-2.3,4.9-3.8,3.9-1,9.1
		c-0.8,7.4-8.6,5,2.6,13.7c2,1.5-2.4,4.2,1.3,4.1c2.2-0.1,12.4-3,9.2,2.4c-0.4,0.8-2,2.2-1.1,3c13.5,1.6,12.9-6.2,22.3-5.3
		c2.7,0.6,1.7,2.5,3.7,3.8c3.6,1.8,14.9,0.1,18.8-0.3c5.8-3,13-9,19.9-5.8c2.4,1.4,3.5,4.7,6.6,4.7c4.3-2,12.3,1.6,15-0.9
		c-0.6-0.6-0.8-1-0.2-1.9c1.8-2.7,4.7-2.6,7.5-2.6c2.9,0.4,1.4,2,3.6,3.8c0.6-3.4-0.4-5.3,4.3-5.9c1.8-0.2,1.5-1.5,0.1-1.9
		c-3.8-1.8-9,0.8-13,1.1c-5.7,0.4-14.4-4.1-5.2-7.6c2.1-1.9-0.3-4.2,3.9-5.7c2.5-1.3,5.8,0.2,6.8-2.7c0.7-2.9,8.1-3.3,8,0.4
		c0.2,2.9,3.4-2.1,5.8,0.5c1.6,2.3,9.2,0.4,5,4.8c-0.4,0.3-0.4,0.8-0.4,1.2c0.1,2.8-3.6,0.6-4.5,3.1c1.6,1.6,3.6-0.8,6.2-0.2
		c2.1,0.4,2.6,1.1,4.8,1.3c0.9-0.1-0.2-2.8,1.1-3.4c1.8-1.2,4.3-0.1,6,1c3,3-0.4,6.4,6.5,7c2.9-0.4,6-4.4,9.3-4.2
		c9.8-0.9,18.9,1.9,27.8,2.4c11.1,2.9,38.3,21.5,48,11.1c1.3-3.5,10.2-6.8,9.6-1c-0.5,3.7,3.3,2.5,5.5,2c4.1,0.5,10.6-0.4,11.8,4.7
		c-0.3,0.5,3,0.7,4,0.6c2,0.2,2.8,1.2,3.9,2.7c0.9,0.8,3.4,2,3.5,3c-0.5,2.6-4.1,3.9-0.6,6.5c4,3.2,11-6,13.9,0.9
		c0.3,1.9-3.6,3-1.6,4.9c2.9,3.4-6.2,2.9-2.5,5.5c3.9-0.8,14.8-3.2,16.8-7.5c3.4-5.4,14.1-7.7,9.6-15.3c-4.5-2.8-0.2-5.5-2.3-8.4
		c-3.1-2.9,4.5-5.3,6.2-3.2c0.8,1-0.9,2.5-0.9,3.3c0.7,1.2,2.1,1.7,4.4,1.7c3-0.2,3.1-2.2,5.7-2.6c2.5-0.5,9.7-1.7,12.2,1
		c1,1.3,5.8,0.9,6.8,2.3c3.4,2.7,8.9-0.8,12.3-1.4c2.2-0.1,5.4,2.3,1.5,3.7c-0.4,0.2-0.7,0.3,1.9,1.9c0.8,0,1.3,0.1,2.2,1.5
		c0.4,1,4.3,1.9,4.8,3.2c2.2,1.3-1.4,5.3,1.8,4.8c15.7,0.8,12.5-4.9,22.4-4.8c3.1,1.1-0.2,4.3,5.2,4c1.3-0.8,2.8-4.2,4.5-4.7
		c2.3-0.9,7.1-0.1,7.4-3.5c1.2-8.9,12.1-2.5,17.3-5.8c2.5-1.9,2.7-6,6.3-6.8c2.6-0.9,4.9-0.6,7.9-0.5c3.3-0.2,3.4-0.9,6.9-1
		c3.7,0,5.4,2.2,8-1.3l0,0c3.4-2.3,5.2-1.6,10.7-2.2c7.6-0.9,9.5,0.2,23.9-2c1.2-1.8-3.3-4.5-3.8-6.4c0.1-1.3,1.9-1.7,12.4-0.7
		c5.8-2.3,3-0.1,14.1-1.3c7.4,2.6-2.9,6.9,17.6,3.6c0.3-1.1,7.9-2.5,11-2.6c1.1,0,2.1,0,9.6,8.8c-2.2,1.7-2,4.3,2,5.1
		c2.7,0.7,3.3,0.9,6.1,2.7c2.7,1.7,2.5,2.6,5,3.9c3.1,1.3,6.5,1.6,9.6-0.9c0.9-0.8,0.6-1.5,1.2-8.1c-1.8-2.2,1.5-3.2,2.7-6.1
		c0.7-0.9,0.6-1.7-0.8-6.8c-1.1-0.6-1.8-1.1-6.5-2.3c-0.6,0.4-1.7,0.6-10.1-1.8c1.2-3.3,5.2-8.5,7.9-15.4c-1.1-0.7-1.8-1.3-1.7-2.7
		c-0.4-1.8-3-3.2-4.1-5.3c-1.6-2.6-5.7-1.6-6.2-5.9c-2.4-3.7-11.6-6.3-11.8-11.8c0.2-1.9,1.5-2.4,6.9-5.1c3.5-6.4,6.2-6.9,13.3-7.6
		c9.3-8.9,6.5-3.4,16.8-8.2c4.4-4.4,10.7-0.6,17.3-3.9c4.9-3.3,6.6-4.8,10.5-7.9c0.7-1,0.9-1.9,2.9-6.5c0.1-0.8,0-1.6-0.1-2.4
		c-0.4-1.1,0.3-2.1,2.1-4.8c-0.5-5-3.2-1.7,7.4-10.8c0.9,0.4,1.8,0.9,10.6,2.7c3.6,1.7,2.5,3.4,8.9,3.2c-0.5-1.2,4.4-3.8,6.4-5.5
		c4.3-7.3,1.8-6.4,1.6-15.2c-2.5-1.4,1.2-5.4,0.9-7.8c0.3-3.5-4.2-5.2-5.9-7.6c0-1.5-7.2-2.3-10.3-4.9c-6.6-7.3-2.4-7.5-19.8-6.1
		c-1.7-2-6.8-2.7-5.3-6.3c0.1-0.9,0.3-1.7-0.1-2.7c-2.3-3-4.4-2.5-7.9-6.3c-0.7-0.6-1.6-0.9-10.8-1.7c-2.8-0.6-1.9-3.6-3.6-5.3
		c-2.4-2.1-5.8-2.4-7.6-6c-0.6-1.3-1-2-2.9-3.4c-4.7-3.8-3.2-5.7-11.2-10c-5.9-1.8-14.4,5.1-18.7-4.9c-2-4-9.8-3.9-11.7-8
		c-0.4-0.7-0.4-2-0.4-3.8c0.2-5-5.9-2.3-6.5-10.1c-0.1-0.9-0.4-2.1-6.3-6c-0.5-0.9-0.4-2-2.2-6.1c-4.7-1.9-7.8-3.6-9.1-9.8
		c0.6-3.1,6.4-2,6.3-6.6c-0.9-2.3,2.5-3.5,3.8-5.1c1.9-4.8,2.8-1.7-5.2-14.6c-2.3-0.4-3-0.7-5.8-2.8c-3.6-1.6-6.9-2.8-10.5-4.4
		c-4.1-0.7-1.7-3.6-6.3-6.3c-5.9-4.6-2.6-1.5-3.4-10.5c-4.4-7.4-8.7-2.4-7-10.4c0.9-0.5,0.6-1.1,20.3,9c-0.6-0.9-1-2,1.8-8.3
		c0-0.8,0-1.6,4.5-5.9c0.2-2.4,8.4-4.6,9.4-8c2.4-4.2,2.6-2.5,10.6-4.6c2.5-1.4,5.5-1.6,10.4,0.3c3.3-1.2,2.9-4.9,9.7-5.4
		c7.5-1.2,6,4.8,21.1-1.1c0.1-1.2,0.3-2.6,18.6-8.3c0.4-0.3,0.7-1.3,1.1-2.5s0.8-2.6,13.2-9.8c1-1,1.8-1.7,10.4,1.1
		c3-1.3,6.1-4.5,8.5-11.6c0.7-1.7,2.6-1.8,18-4c0.7-0.3,1.6-0.6,16.4-4.4c-0.2-0.9-0.5-1.6,13.8-6.1c6.7-2,7.2-3.4,18.5-8.2
		c3.8-4.4,16.2,1.5,13.2-7.8c-1.7-0.2-2.9-0.6-7.3-11.9c0.2-1.6,0.7-1.9,11.4,0.7c0.5,0,2.3-0.6,19.4,3.9c1.9,3.3,0.6,3.4-2,8.2
		c0.8,0,2-0.4,6.7-1.3c1.6,0.8,1.1,2.1-1,8.2c2.6,1.2,6-0.2,7.6,2.7c0.6,1,0.7,1.3,9.2-4.2c-1.2-3.7,4.4-4.9,6-7.5
		c1.2-3.2,3.6-6.8,4.5-10.2c0.2-1.8,1.3-4,2.7-5.3c2.9-2.6-0.7-5,3.5-9.9c3.4-3.6,1.2-10.8,3.9-14.6
		C1424.5,536.7,1425,535.8,1424.1,533.8z M772.6,248.3c-0.1,0.8-0.6,1.4-0.9,2.1l-2.7-0.5c0.2-2.1-0.5-3.7-0.7-5.7l2.8-0.1
		C771.4,245.5,773,246.9,772.6,248.3z M1301.1,167.7L1301.1,167.7l2.7-0.3c0.5,1.4-0.2,3.5-0.8,4.9c-0.1,0.4-0.5,0.9-0.8,1.3l-2.2-1
		C1300.9,170.6,1301.1,168.5,1301.1,167.7z M1307.9,198c-2.8,0-0.6,3.8-0.2,5.2c-8.5-3.4-2.7-4.7,0.3-9.4c1.6-1.4,6.3-2.7,2.6-5.4
		c-5.4-1.8-2.8-3.6-6.7-6.7c-3.2-2.4-7.7-2.1-5.3-6.6l2.5,0.7c-0.3,0.8,0.7,1.3,2.1,1.3c1.7,0,2.8-2.7,4.2-3.7
		c0.2,0.3,1,1.4,1.3,1.6c1.1,1.4-0.7,2-0.3,3.3c2.1,1,5.6-1.1,5.3-3.4c-0.1-1.9-0.1-3.3,2.1-3.3c3.7,0.4,5.8,2.3,6.5,5.8
		c1.7,1.8,5.7,2.7,4.3,6c-0.5,1.5,0.1,3.9-0.7,5.2c-2.4,0.6-5-3.6-7.1-0.9c-2.4-1.3,0-5.5-3-6c-1.8-0.5-4.4,0.6-4.3,2.1
		c0,1.3,2,2.9,3.2,3.9C1319.4,193.1,1312.6,197.1,1307.9,198z"/>
	<g id="Inseln_00000083787088973154183450000004945811125998165674_">
		<path class="st1" d="M751.3,41.9c3.9-5.3,5.3,0.8,9.7,1.3c3.6,0.2,7.7-2.9,11.6-2.5c1.6,0,3.4,0.4,4.9,0.1
			c4.5-1.5-6.1-2.6-7.6-1.7c-3.7,1.1-12.8-0.8-13-3.9c0-2.2-0.2-5.5-0.1-8c0.1-2.7-1.4-3.1,2-4.6c3.3-1.6,4.7-1.8,4.8-3.4
			c-0.5-5-2.4-5.5-7-2c-2.9,1.9-1.1,6.5-3.1,8.6c-2.1,2.1-4,6.5-4.5,9.2c-0.5,2.8,0.9,4.3,0,7.9c-0.8,3.7-0.6,10.3,0,10.7
			C751.9,51.9,748.6,43.6,751.3,41.9z"/>
		<path class="st1" d="M778.3,60.3c-2.2-1.5-3.2-0.2-5.6-0.6c-3.7-0.4-4.1-1.6-6.8-1.1c-2.5,0.5-1.8,2.3-3.9,3.4
			c-4.2,3.9,11.5,8.1,14.5,7c2-0.5,1.5-2.6,2.4-4C780.1,63.5,781,61.7,778.3,60.3z"/>
		<path class="st1" d="M756.1,77.8c7.9-1.2-1-4.6-0.9-8.3c-0.2-3,0.2-3.1,0.4-5c-0.3-1.8-4.4,2.3-5,3c-1.3,1.1-0.3,4.3,1,5.5
			c1.2,1.1,1,4.1,3.7,4.6C755.5,77.9,755.8,77.8,756.1,77.8z"/>
		<path class="st1" d="M812.6,94.3c-1.4-0.1-3.2,0.1-5.7,0.7c-3.8,1.6-4.9,7.4,0.1,7.8C812.8,104,821.7,95.2,812.6,94.3z"/>
		<path class="st1" d="M789.7,157.4c-2.5,0-1.7,4.6,0.2,4.6C792.6,161.8,792.5,157.2,789.7,157.4z"/>
		<path class="st1" d="M1049.6,108.4c-2.7-2.4-9.4-5.7-14.1-6.6c-6.5,0.4-18.8,13.8-3.9,12.4c5.9,0.1,0.9,7,5.2,6.8
			c3,0.1,5.3-2.8,8-2.6c3.6,0.7,14.3,6,8.2-3.5C1050.6,111.2,1051.8,110.2,1049.6,108.4z"/>
		<path class="st1" d="M763.6,171.8c-3.3-0.3-2.1,5.3-0.4,5.8C765.5,177.7,767.3,172,763.6,171.8z"/>
		<path class="st1" d="M619.7,202.6c-3.4,0.5-7.5,1.1-11.1,0.7c-2.3-0.1-2.3,1.8-0.4,1.9c2.2-0.3,12.7,1.1,13.6-1
			C622.1,203.5,621.3,202.7,619.7,202.6z"/>
		<path class="st1" d="M641.2,198.9c-4.3,0-10.4-0.4-11.2,0.8c-0.9,1,0.2,2,2.1,2.2C637.8,202.3,660.3,200.8,641.2,198.9z"/>
		<path class="st1" d="M601.9,207c-1.4,0.2-2.8,2-0.3,3.1c1.3,0.7,5.6,0,4.4-1.3C605,208.2,603.2,207.1,601.9,207z"/>
		<path class="st1" d="M656.1,199.3c-2.4-0.1,0.1,2.2,1.5,2.3C658.9,201.7,660.3,199.5,656.1,199.3z"/>
		<path class="st1" d="M672.3,196c-2.8-0.3-7.5,0.2-8.2,1.5c-0.6,0.9,0,3.7,1.8,3.7c1.7-0.1,2.4-2.5,4-2.8c1.8-0.2,4.4-0.3,6.4-0.1
			C683.6,198.9,678.9,196,672.3,196z"/>
		<path class="st1" d="M692.4,194.4c-3.3,0.3-11.1,1.3-6.2,3.4c2.7-0.8,6.8-0.3,9.8,0.1C700.3,197.8,696.7,194.4,692.4,194.4z"/>
		<path class="st1" d="M587.9,211.6c-2.7,0.3-10,0-9.7,1.6c-0.1,1.5-0.4,2.8,2.1,3.7c1.8,0.4,5.5,2.1,6.8,0.4
			c0.2-1.2-1.9-2.8,0.4-3.1c1.9-0.6,4.1,1,5.6-0.1C593,213.2,592,211.8,587.9,211.6z"/>
		<path class="st1" d="M600.2,214.1c-1.3-0.3-3.6,0.7-1.2,1.4c0.8,0,2.9,1.3,3.2,0.1C602,214.6,602.1,214.1,600.2,214.1z"/>
		<path class="st1" d="M710.2,193.3c-2.4-0.5-4.8,1.8-2,2c2.2-0.1,3.8,1.3,6,2C716.4,196,712.7,193,710.2,193.3z"/>
		<path class="st1" d="M1235.3,98.9c1.2-0.5,2.5,0.2,2.8-0.7c0.9-4.4-4.8-4.6-6.1,0.1c-0.4,1.7,0.2,2.8-0.3,4.2
			c-0.4,1.5-1,1.3-1.2,2.8c-0.1,1.6-0.5,1.6-1.5,3c-0.8,1.5-0.9,5.9,0,6c1.8-1.1,1.8-6.1,4-7.3
			C1235.6,105.8,1233.6,100.2,1235.3,98.9z"/>
		<path class="st1" d="M737,202.6c-1.5-0.5-7.4,3-4.8,4.5C734.7,208.1,743.1,204.1,737,202.6z"/>
		<path class="st1" d="M1296.9,131.5c-0.9-1.7-1.8-1.1-4.1-3.1c-2.2-2-1-3.1-3-4c-6-1.6-8,0.1-9.6-7.1c-1.5-3.8,4.1-8.3,7.1-10.6
			c3.9-3,2-8.2-2.3-8.8c-10.7-0.7-15.5,6.4-24.5-3.4c0.4-0.7-0.5-1.9-0.1-4.4c0.6-3,3.1-1.6,4.9-2.9s-0.3-2.8-2.2-2.9
			c-2.1-0.1-3.9,0.7-6.6,1c-4,1.5-4.9,0-8.5,1.9c-2.2,1.3-4.8,4-1.8,4c1.6-0.1,3.5-1.2,5.2-1.1c2.2,0.3,0.4,1.2,0.3,3.2
			c-0.2,2.1-2.6,2.5-3.2,4.9c-0.7,2.7,0.2,3,2.2,2.5c4.3-0.5,3.7-5.6,7.2-5.8c2.8,1.4,4,2.8,5.5,5.2c0.8,1.9,5.5,3.2,8.1,2.6
			c2.8-1,2.6,2.8,2.4,5.4c-2.1,5,2.9,5.1,3.3,9.2c-0.2,3.8-5.3,7.8-6.1,2.1c0.2-1.7-0.4-2.9-0.8-4.1s-0.7-1.6-3.1-2.7
			c-6-1.6-1.7-4.6-5.2-6.6c-1.7-0.6-2.8,1.4-4.5,1.3c-1.4-1.4,2.9-4.1-1.5-5c-2.8,0.1-1.1,5.2-3.8,5.2c-1.9,0.1-2-2.9-2.9-3.8
			c-1.4-1.4-9.2-0.8-10.2,0c-0.8,0.9,0.3,2.9,0.8,4.2c1.5,2.6,7.8,1.4,8.9,5.4c1.5,3.4-8.1,2.2-8.7,4.3c-2.1,3.2,0.2,3.8,3,3.4
			c1.7-0.2,4.7,5.8,4.9,6.3c-1.4,2-9.2-0.4-11.5,0.8c-3.8,3.1-0.1,6.9,2.7,9.7c1.6,2.1,3.5,1.3,5.3,3.2c7.5,7.5,11.3-2.8,9.3,4.9
			c-0.1,0.7,7.5,2.2,8.3,2.5c1.5,0.2,3.3-1.5,3.3-3.1c0-1.4-3.3-1-4.5-1.2c-1.6-0.1-3.6-1.1-3.5-2.6c0.2-1.5,4.2-0.3,5.6-1.6
			s0.5-2.1,2.4-3.4c1.9-1.4,3.5-1.8,4.7-3.7c2-2.7,5.1,0.8,10.1-1.9c0.9,0,0.9,0.6,3,0.9c1.9,0.3,3.4-1.5,5.2-0.5
			c1.6,0.8,0.1,1.6,1.4,2.7c3.8,3-4.7,2.9-4.2,4.7c0.1,1.1,2.6,1.2,5.1,1.5c2.2,0,3,2.1,3.7,0.3c0.6-1.7,0.3-3.3,0.9-5.1
			C1295.9,134,1297.8,133.2,1296.9,131.5z"/>
	</g>
</g>
</svg>
