<?xml version="1.0" encoding="utf-8"?>
<!-- Generator: Adobe Illustrator 26.0.3, SVG Export Plug-In . SVG Version: 6.00 Build 0)  -->
<svg version="1.1" id="Ebene_1" xmlns="http://www.w3.org/2000/svg" xmlns:xlink="http://www.w3.org/1999/xlink" x="0px" y="0px"
	 viewBox="0 0 64 64" style="enable-background:new 0 0 64 64;" xml:space="preserve">
<style type="text/css">
	.st0{fill:#1D1D1B;}
</style>
<g>
	<path class="st0" d="M28.2,38.5c-0.5,4.5-1.8,8-3.9,10.5c-2.1,2.6-4.9,3.8-8.3,3.7c-2.7-0.1-4.8-1.2-6.3-3.4l-1,2.9H1l6.8-39.1h8.4
		l-2.7,13.8c1.9-1.9,3.9-2.8,6.2-2.8c2.7,0,4.8,1,6.3,2.9c1.5,1.9,2.3,4.5,2.4,7.7c0,1.1,0,2.1-0.1,3.2L28.2,38.5z M19.8,38
		c0.1-1,0.2-2,0.2-3c0-2.7-1-4.2-2.9-4.3c-1.7-0.1-3.2,0.7-4.4,2.2l-2,11c0.5,1.4,1.7,2.1,3.5,2.2c2.7,0.1,4.5-1.7,5.2-5.3l0.4-2.3
		L19.8,38z"/>
</g>
<g>
	<path class="st0" d="M61.7,38.6c-0.3,2.8-1.1,5.4-2.3,7.6c-1.2,2.3-2.7,3.9-4.4,5c-1.7,1.1-3.6,1.6-5.7,1.6
		c-3.3-0.1-5.8-1.3-7.4-3.7L41,52.2h-4.3l6.8-39.1h4.6l-2.8,14.6c2.2-2.4,4.9-3.6,8.1-3.6c2.7,0.1,4.7,1,6.2,2.9
		c1.5,1.9,2.3,4.5,2.3,7.8c0,1.1,0,2.1-0.2,3.2L61.7,38.6z M57.3,35.9c0.1-2.5-0.4-4.4-1.2-5.7c-0.9-1.3-2.2-2-4.1-2.1
		c-2.9-0.1-5.3,1.4-7.3,4.3l-2.1,12c1,2.8,2.9,4.2,5.7,4.3c1.8,0.1,3.4-0.5,4.7-1.6c1.4-1.1,2.4-2.7,3.1-4.8
		C56.9,40.3,57.3,38.2,57.3,35.9z"/>
</g>
<g>
	<path d="M29.9,67.8l-3-0.5L28.6,57l3,0.5L29.9,67.8z M32.2,53.5l-3-0.5L31,42.2l3,0.5L32.2,53.5z M34.6,38.7l-3-0.5l1.8-10.9l3,0.5
		L34.6,38.7z M37,23.9l-3-0.5l1.8-10.9l3,0.5L37,23.9z M39.4,9.1l-3-0.5l1.8-10.9l3,0.5L39.4,9.1z"/>
</g>
<g>
	<circle cx="29.8" cy="56.9" r="4.2"/>
</g>
</svg>
