<?xml version="1.0" encoding="utf-8"?>
<!-- Generator: Adobe Illustrator 25.4.1, SVG Export Plug-In . SVG Version: 6.00 Build 0)  -->
<svg version="1.1" id="Ebene_1" xmlns="http://www.w3.org/2000/svg" xmlns:xlink="http://www.w3.org/1999/xlink" x="0px" y="0px"
	 viewBox="0 0 30 30" style="enable-background:new 0 0 30 30;" xml:space="preserve">
<style type="text/css">
	.st0{fill:#666666;}
</style>
<path class="st0" d="M21.8,14.7c0.8-0.8,1.4-2,1.4-3.3c0-2.2-1.6-4.1-3.8-4.5c0-2.4-2-4.4-4.4-4.4s-4.4,2-4.4,4.4
	c-2.1,0.4-3.8,2.3-3.8,4.5c0,1.3,0.5,2.4,1.4,3.3c-1.2,0.9-2.1,2.4-2.1,4v0c0,2.7,2.2,5,5,5h1.8v4.6h4.2v-4.6h1.8c2.7,0,5-2.2,5-5v0
	C23.9,17.1,23.1,15.6,21.8,14.7z"/>
</svg>
