<?xml version="1.0" encoding="utf-8"?>
<!-- Generator: Adobe Illustrator 28.0.0, SVG Export Plug-In . SVG Version: 6.00 Build 0)  -->
<svg version="1.1" id="Ebene_1" xmlns="http://www.w3.org/2000/svg" xmlns:xlink="http://www.w3.org/1999/xlink" x="0px" y="0px"
	 viewBox="0 0 20 20" style="enable-background:new 0 0 20 20;" xml:space="preserve">
<style type="text/css">
	.st0{fill:#1D1D1B;}
</style>
<polygon class="st0" points="10,4.7 11.3,0.1 11.3,4.8 13.7,0.7 12.6,5.3 15.9,1.9 13.7,6.1 17.7,3.6 14.5,7.2 19.1,5.8 15.1,8.4 
	19.8,8.1 15.3,9.7 20,10.6 15.2,11 19.5,13.1 14.8,12.3 18.5,15.4 14.1,13.4 16.9,17.3 13.1,14.3 14.8,18.8 12,15 12.5,19.7 
	10.7,15.3 10,20 9.3,15.3 7.5,19.7 8,15 5.2,18.8 6.9,14.3 3.1,17.3 5.9,13.4 1.5,15.4 5.2,12.3 0.5,13.1 4.8,11 0,10.6 4.7,9.7 
	0.2,8.1 4.9,8.4 0.9,5.8 5.5,7.2 2.3,3.6 6.3,6.1 4.1,1.9 7.4,5.3 6.3,0.7 8.7,4.8 8.7,0.1 "/>
</svg>
