<?xml version="1.0" encoding="utf-8"?>
<!-- Generator: Adobe Illustrator 25.4.1, SVG Export Plug-In . SVG Version: 6.00 Build 0)  -->
<svg version="1.1" id="Ebene_1" xmlns="http://www.w3.org/2000/svg" xmlns:xlink="http://www.w3.org/1999/xlink" x="0px" y="0px"
	 viewBox="0 0 30 30" style="enable-background:new 0 0 30 30;" xml:space="preserve">
<style type="text/css">
	.st0{fill:#666666;}
</style>
<path class="st0" d="M15,0c-4.9,0-8.9,4-8.9,8.9C6.1,16,15,23.3,15,23.3s8.9-6.7,8.9-14.4C23.9,4,19.9,0,15,0z M17.9,10l0.9,4.3
	L15,12.1l-3.8,2.2l0.9-4.3L8.9,7.1l4.3-0.5l1.8-4l1.8,4l4.3,0.5L17.9,10z"/>
<path class="st0" d="M17.3,24c-0.6,0.5-2.3,1.8-2.3,1.8s-1.6-1.3-2.2-1.8c-2.7,0.4-4.7,1.5-4.7,2.8c0,1.6,3.1,3,6.9,3s6.9-1.3,6.9-3
	C21.9,25.5,19.9,24.4,17.3,24z"/>
</svg>
